<?xml version="1.0" encoding="UTF-8" standalone="no"?>
<!-- Created with Inkscape (http://www.inkscape.org/) -->

<svg
   xmlns:dc="http://purl.org/dc/elements/1.1/"
   xmlns:cc="http://creativecommons.org/ns#"
   xmlns:rdf="http://www.w3.org/1999/02/22-rdf-syntax-ns#"
   xmlns:svg="http://www.w3.org/2000/svg"
   xmlns="http://www.w3.org/2000/svg"
   xmlns:sodipodi="http://sodipodi.sourceforge.net/DTD/sodipodi-0.dtd"
   xmlns:inkscape="http://www.inkscape.org/namespaces/inkscape"
   width="326.76373mm"
   height="205.60985mm"
   viewBox="0 0 1157.8243 728.53881"
   id="svg9781"
   version="1.1"
   inkscape:version="0.91 r13725"
   sodipodi:docname="drawing.svg">
  <defs
     id="defs9783">
    <marker
       inkscape:stockid="Arrow2Mstart"
       orient="auto"
       refY="0"
       refX="0"
       id="Arrow2Mstart"
       style="overflow:visible"
       inkscape:isstock="true">
      <path
         id="path11870"
         style="fill:#212121;fill-opacity:0.73333333;fill-rule:evenodd;stroke:#212121;stroke-width:0.625;stroke-linejoin:round;stroke-opacity:0.73333333"
         d="M 8.7185878,4.0337352 -2.2072895,0.01601326 8.7185884,-4.0017078 c -1.7454984,2.3720609 -1.7354408,5.6174519 -6e-7,8.035443 z"
         transform="scale(0.6,0.6)"
         inkscape:connector-curvature="0" />
    </marker>
    <marker
       inkscape:stockid="Arrow2Mend"
       orient="auto"
       refY="0"
       refX="0"
       id="Arrow2Mend"
       style="overflow:visible"
       inkscape:isstock="true">
      <path
         id="path11873"
         style="fill:#212121;fill-opacity:0.73333333;fill-rule:evenodd;stroke:#212121;stroke-width:0.625;stroke-linejoin:round;stroke-opacity:0.73333333"
         d="M 8.7185878,4.0337352 -2.2072895,0.01601326 8.7185884,-4.0017078 c -1.7454984,2.3720609 -1.7354408,5.6174519 -6e-7,8.035443 z"
         transform="scale(-0.6,-0.6)"
         inkscape:connector-curvature="0" />
    </marker>
    <marker
       inkscape:stockid="Arrow1Mstart"
       orient="auto"
       refY="0"
       refX="0"
       id="Arrow1Mstart"
       style="overflow:visible"
       inkscape:isstock="true">
      <path
         id="path11852"
         d="M 0,0 5,-5 -12.5,0 5,5 0,0 Z"
         style="fill:#212121;fill-opacity:0.73333333;fill-rule:evenodd;stroke:#212121;stroke-width:1pt;stroke-opacity:0.73333333"
         transform="matrix(0.4,0,0,0.4,4,0)"
         inkscape:connector-curvature="0" />
    </marker>
    <pattern
       inkscape:stockid="Stripes 1:1"
       id="Strips1_1"
       patternTransform="translate(0,0) scale(10,10)"
       height="1"
       width="2"
       patternUnits="userSpaceOnUse"
       inkscape:collect="always">
      <rect
         id="rect38897"
         height="2"
         width="1"
         y="-0.5"
         x="0"
         style="fill:black;stroke:none" />
    </pattern>
    <marker
       inkscape:stockid="RazorWire"
       id="RazorWire"
       refX="0"
       refY="0"
       orient="auto"
       style="overflow:visible"
       inkscape:isstock="true">
      <path
         id="path12078"
         transform="scale(0.8,0.8)"
         style="fill:url(#Strips1_1);fill-opacity:1;fill-rule:evenodd;stroke:#212121;stroke-width:0.1pt;stroke-opacity:0.73333333"
         d="m 0.02272727,-0.74009011 0,1.4375 -7.78124997,2.31250001 18.4374997,0 -7.1874997,-2.31250001 0,-1.4375 7.2499997,-2.15624999 -18.4687497,0 7.74999997,2.15624999 z"
         inkscape:connector-curvature="0" />
    </marker>
    <marker
       inkscape:isstock="true"
       style="overflow:visible"
       id="marker35412"
       refX="0"
       refY="0"
       orient="auto"
       inkscape:stockid="Arrow1Lend">
      <path
         transform="matrix(-0.8,0,0,-0.8,-10,0)"
         style="fill:#212121;fill-opacity:0.73333333;fill-rule:evenodd;stroke:#212121;stroke-width:1pt;stroke-opacity:0.73333333"
         d="M 0,0 5,-5 -12.5,0 5,5 0,0 Z"
         id="path35414"
         inkscape:connector-curvature="0" />
    </marker>
    <marker
       inkscape:stockid="Arrow1Lend"
       orient="auto"
       refY="0"
       refX="0"
       id="marker34428"
       style="overflow:visible"
       inkscape:isstock="true"
       inkscape:collect="always">
      <path
         inkscape:connector-curvature="0"
         id="path34430"
         d="M 0,0 5,-5 -12.5,0 5,5 0,0 Z"
         style="fill:#212121;fill-opacity:0.73333333;fill-rule:evenodd;stroke:#212121;stroke-width:1pt;stroke-opacity:0.73333333"
         transform="matrix(-0.8,0,0,-0.8,-10,0)" />
    </marker>
    <marker
       inkscape:stockid="Arrow1Lend"
       orient="auto"
       refY="0"
       refX="0"
       id="Arrow1Lend"
       style="overflow:visible"
       inkscape:isstock="true">
      <path
         id="path11849"
         d="M 0,0 5,-5 -12.5,0 5,5 0,0 Z"
         style="fill-rule:evenodd;stroke:#000000;stroke-width:1pt"
         transform="matrix(-0.8,0,0,-0.8,-10,0)"
         inkscape:connector-curvature="0" />
    </marker>
    <marker
       inkscape:stockid="Arrow1Lstart"
       orient="auto"
       refY="0"
       refX="0"
       id="marker22582"
       style="overflow:visible"
       inkscape:isstock="true">
      <path
         id="path22584"
         d="M 0,0 5,-5 -12.5,0 5,5 0,0 Z"
         style="fill:#212121;fill-opacity:0.73333333;fill-rule:evenodd;stroke:#212121;stroke-width:1pt;stroke-opacity:0.73333333"
         transform="matrix(0.8,0,0,0.8,10,0)"
         inkscape:connector-curvature="0" />
    </marker>
    <marker
       inkscape:stockid="Arrow1Lend"
       orient="auto"
       refY="0"
       refX="0"
       id="marker20736"
       style="overflow:visible"
       inkscape:isstock="true">
      <path
         id="path20738"
         d="M 0,0 5,-5 -12.5,0 5,5 0,0 Z"
         style="fill:#212121;fill-opacity:0.73333333;fill-rule:evenodd;stroke:#212121;stroke-width:1pt;stroke-opacity:0.73333333"
         transform="matrix(-0.8,0,0,-0.8,-10,0)"
         inkscape:connector-curvature="0" />
    </marker>
    <marker
       inkscape:isstock="true"
       style="overflow:visible"
       id="marker19344"
       refX="0"
       refY="0"
       orient="auto"
       inkscape:stockid="Arrow1Lend">
      <path
         transform="matrix(-0.8,0,0,-0.8,-10,0)"
         style="fill:#212121;fill-opacity:0.73333333;fill-rule:evenodd;stroke:#212121;stroke-width:1pt;stroke-opacity:0.73333333"
         d="M 0,0 5,-5 -12.5,0 5,5 0,0 Z"
         id="path19346"
         inkscape:connector-curvature="0" />
    </marker>
    <marker
       inkscape:stockid="Arrow1Lend"
       orient="auto"
       refY="0"
       refX="0"
       id="marker14348"
       style="overflow:visible"
       inkscape:isstock="true">
      <path
         id="path14350"
         d="M 0,0 5,-5 -12.5,0 5,5 0,0 Z"
         style="fill:#212121;fill-opacity:0.73333333;fill-rule:evenodd;stroke:#212121;stroke-width:1pt;stroke-opacity:0.73333333"
         transform="matrix(-0.8,0,0,-0.8,-10,0)"
         inkscape:connector-curvature="0" />
    </marker>
    <marker
       inkscape:stockid="Arrow1Lend"
       orient="auto"
       refY="0"
       refX="0"
       id="marker13254"
       style="overflow:visible"
       inkscape:isstock="true"
       inkscape:collect="always">
      <path
         id="path13256"
         d="M 0,0 5,-5 -12.5,0 5,5 0,0 Z"
         style="fill:#212121;fill-opacity:0.73333333;fill-rule:evenodd;stroke:#212121;stroke-width:1pt;stroke-opacity:0.73333333"
         transform="matrix(-0.8,0,0,-0.8,-10,0)"
         inkscape:connector-curvature="0" />
    </marker>
    <marker
       inkscape:isstock="true"
       style="overflow:visible"
       id="marker12696"
       refX="0"
       refY="0"
       orient="auto"
       inkscape:stockid="Arrow1Lend"
       inkscape:collect="always">
      <path
         transform="matrix(-0.8,0,0,-0.8,-10,0)"
         style="fill:#212121;fill-opacity:0.73333333;fill-rule:evenodd;stroke:#212121;stroke-width:1pt;stroke-opacity:0.73333333"
         d="M 0,0 5,-5 -12.5,0 5,5 0,0 Z"
         id="path12698"
         inkscape:connector-curvature="0" />
    </marker>
    <marker
       inkscape:stockid="Arrow1Lstart"
       orient="auto"
       refY="0"
       refX="0"
       id="Arrow1Lstart"
       style="overflow:visible"
       inkscape:isstock="true">
      <path
         id="path11846"
         d="M 0,0 5,-5 -12.5,0 5,5 0,0 Z"
         style="fill:#212121;fill-opacity:0.73333333;fill-rule:evenodd;stroke:#212121;stroke-width:1pt;stroke-opacity:0.73333333"
         transform="matrix(0.8,0,0,0.8,10,0)"
         inkscape:connector-curvature="0" />
    </marker>
  </defs>
  <sodipodi:namedview
     id="base"
     pagecolor="#ffffff"
     bordercolor="#666666"
     borderopacity="0"
     inkscape:pageopacity="0.0"
     inkscape:pageshadow="2"
     inkscape:zoom="0.84964586"
     inkscape:cx="578.91213"
     inkscape:cy="364.26942"
     inkscape:document-units="px"
     inkscape:current-layer="layer1"
     showgrid="false"
     inkscape:window-width="1231"
     inkscape:window-height="782"
     inkscape:window-x="49"
     inkscape:window-y="18"
     inkscape:window-maximized="1"
     fit-margin-top="0"
     fit-margin-left="0"
     fit-margin-right="0"
     fit-margin-bottom="0" />
  <metadata
     id="metadata9786">
    <rdf:RDF>
      <cc:Work
         rdf:about="">
        <dc:format>image/svg+xml</dc:format>
        <dc:type
           rdf:resource="http://purl.org/dc/dcmitype/StillImage" />
        <dc:title></dc:title>
      </cc:Work>
    </rdf:RDF>
  </metadata>
  <g
     inkscape:label="Layer 1"
     inkscape:groupmode="layer"
     id="layer1"
     transform="translate(-205.62584,-261.87049)">
    <g
       style="stroke:#212121;stroke-opacity:0.73333333"
       transform="matrix(0.14970077,0,0,0.14970077,204.23604,449.19535)"
       id="g5905">
      <path
         style="fill:#212121;fill-opacity:0.73333333;fill-rule:evenodd;stroke:#212121;stroke-width:1px;stroke-linecap:butt;stroke-linejoin:miter;stroke-opacity:0.73333333"
         d="m 30.681243,281.89067 c 10.738435,-14.57358 19.942809,-27.61311 19.942809,-27.61311 l -0.767031,219.37089 113.520599,0.76703 0.76703,-153.40622 182.5534,-0.76703 0.76703,153.40622 113.5206,0.76703 -0.76703,-220.90496 22.2439,28.38015 19.17578,-13.03952 L 403.45835,115.44493 255.42135,34.906665 108.15138,116.21196 9.9714041,268.08411 Z"
         id="path5347"
         inkscape:connector-curvature="0"
         sodipodi:nodetypes="cccccccccccccccc" />
      <rect
         style="fill:#ffffff;fill-opacity:1;stroke:#212121;stroke-opacity:0.73333333"
         id="rect5891"
         width="42.953739"
         height="43.720772"
         x="164.14465"
         y="171.4382" />
      <rect
         y="171.4382"
         x="234.71152"
         height="43.720772"
         width="42.953739"
         id="rect5893"
         style="fill:#ffffff;fill-opacity:1;stroke:#212121;stroke-opacity:0.73333333"
         inkscape:transform-center-x="73.634984"
         inkscape:transform-center-y="3.8351554" />
      <rect
         inkscape:transform-center-y="3.8351554"
         inkscape:transform-center-x="73.634984"
         style="fill:#ffffff;fill-opacity:1;stroke:#212121;stroke-opacity:0.73333333"
         id="rect5895"
         width="42.953739"
         height="43.720772"
         x="305.27838"
         y="172.20523" />
      <path
         sodipodi:type="star"
         style="fill:#212121;fill-opacity:0.73333333;stroke:#212121;stroke-opacity:0.73333333"
         id="path5897"
         sodipodi:sides="3"
         sodipodi:cx="196.35995"
         sodipodi:cy="400.78049"
         sodipodi:r1="49.910095"
         sodipodi:r2="69.578423"
         sodipodi:arg1="-0.80713397"
         sodipodi:arg2="0.24006358"
         inkscape:flatsided="true"
         inkscape:rounded="0"
         inkscape:randomized="0"
         d="M 230.87635,364.73002 210.32238,448.6978 147.88114,388.91364 Z"
         inkscape:transform-center-x="-20.229432"
         inkscape:transform-center-y="5.030275"
         transform="matrix(0.50955222,0.92781035,-0.55623765,0.88749576,327.06567,-129.10634)" />
      <path
         transform="matrix(-0.52083945,-0.92152145,0.54536311,-0.89421928,191.75651,946.62936)"
         inkscape:transform-center-y="-5.1231362"
         inkscape:transform-center-x="20.628302"
         d="M 230.87635,364.73002 210.32238,448.6978 147.88114,388.91364 Z"
         inkscape:randomized="0"
         inkscape:rounded="0"
         inkscape:flatsided="true"
         sodipodi:arg2="0.24006358"
         sodipodi:arg1="-0.80713397"
         sodipodi:r2="69.578423"
         sodipodi:r1="49.910095"
         sodipodi:cy="400.78049"
         sodipodi:cx="196.35995"
         sodipodi:sides="3"
         id="path5899"
         style="fill:#212121;fill-opacity:0.73333333;stroke:#212121;stroke-opacity:0.73333333"
         sodipodi:type="star" />
      <path
         sodipodi:type="star"
         style="fill:#212121;fill-opacity:0.73333333;stroke:#212121;stroke-opacity:0.73333333"
         id="path5901"
         sodipodi:sides="3"
         sodipodi:cx="196.35995"
         sodipodi:cy="400.78049"
         sodipodi:r1="49.910095"
         sodipodi:r2="69.578423"
         sodipodi:arg1="-0.80713397"
         sodipodi:arg2="0.24006358"
         inkscape:flatsided="true"
         inkscape:rounded="0"
         inkscape:randomized="0"
         d="M 230.87635,364.73002 210.32238,448.6978 147.88114,388.91364 Z"
         inkscape:transform-center-x="5.06413"
         inkscape:transform-center-y="20.37496"
         transform="matrix(-0.92553745,0.5136691,-0.88995815,-0.55228935,794.42118,481.15418)" />
      <path
         transform="matrix(0.9203882,-0.52283943,0.8954015,0.54341991,-283.67387,341.21599)"
         inkscape:transform-center-y="-20.619524"
         inkscape:transform-center-x="-5.13958"
         d="M 230.87635,364.73002 210.32238,448.6978 147.88114,388.91364 Z"
         inkscape:randomized="0"
         inkscape:rounded="0"
         inkscape:flatsided="true"
         sodipodi:arg2="0.24006358"
         sodipodi:arg1="-0.80713397"
         sodipodi:r2="69.578423"
         sodipodi:r1="49.910095"
         sodipodi:cy="400.78049"
         sodipodi:cx="196.35995"
         sodipodi:sides="3"
         id="path5903"
         style="fill:#212121;fill-opacity:0.73333333;stroke:#212121;stroke-opacity:0.73333333"
         sodipodi:type="star" />
    </g>
    <g
       id="g11772"
       transform="matrix(0.4314126,0,0,0.4314126,803.48583,405.35276)">
      <g
         transform="matrix(0.08385202,0,0,0.08385202,210.01069,863.59586)"
         id="g10054">
        <rect
           style="fill:#212121;fill-opacity:0.73333333;stroke:none"
           id="rect5979"
           width="1195.0741"
           height="1154.661"
           x="0"
           y="184.74576" />
        <rect
           style="fill:#212121;fill-opacity:0.73333333;stroke:none"
           id="rect5981"
           width="144.33263"
           height="184.68567"
           x="213.26207"
           y="0.060089111" />
        <rect
           style="fill:#ffffff;fill-opacity:1;stroke:none"
           id="rect5985"
           width="1114.2479"
           height="848.67584"
           x="43.299767"
           y="450.31781" />
        <rect
           style="fill:#212121;fill-opacity:0.73333333;stroke:none"
           id="rect6531"
           width="236.70551"
           height="230.93221"
           x="72.166237"
           y="498.31778" />
        <rect
           y="498.31778"
           x="895.95844"
           height="230.93221"
           width="236.70551"
           id="rect6535"
           style="fill:#212121;fill-opacity:0.73333333;stroke:none" />
        <rect
           style="fill:#212121;fill-opacity:0.73333333;stroke:none"
           id="rect6537"
           width="236.70551"
           height="230.93221"
           x="346.76361"
           y="498.13736" />
        <rect
           y="498.19376"
           x="621.36102"
           height="230.93221"
           width="236.70551"
           id="rect6539"
           style="fill:#212121;fill-opacity:0.73333333;stroke:none" />
        <rect
           y="757.54663"
           x="72.166237"
           height="230.93221"
           width="236.70551"
           id="rect6543"
           style="fill:#212121;fill-opacity:0.73333333;stroke:none" />
        <rect
           style="fill:#212121;fill-opacity:0.73333333;stroke:none"
           id="rect6545"
           width="236.70551"
           height="230.93221"
           x="895.95844"
           y="757.54663" />
        <rect
           y="757.36621"
           x="346.76361"
           height="230.93221"
           width="236.70551"
           id="rect6547"
           style="fill:#212121;fill-opacity:0.73333333;stroke:none" />
        <rect
           style="fill:#212121;fill-opacity:0.73333333;stroke:none"
           id="rect6549"
           width="236.70551"
           height="230.93221"
           x="621.36102"
           y="757.42261" />
        <rect
           style="fill:#212121;fill-opacity:0.73333333;stroke:none"
           id="rect6551"
           width="236.70551"
           height="230.93221"
           x="72.166237"
           y="1016.7753" />
        <rect
           style="fill:#212121;fill-opacity:0.73333333;stroke:none"
           id="rect6555"
           width="236.70551"
           height="230.93221"
           x="346.76361"
           y="1016.595" />
        <rect
           y="1016.6514"
           x="621.36102"
           height="230.93221"
           width="236.70551"
           id="rect6557"
           style="fill:#212121;fill-opacity:0.73333333;stroke:none" />
        <rect
           y="799.2417"
           x="664.22565"
           height="147.29396"
           width="150.9763"
           id="rect6559"
           style="fill:#ffffff;fill-opacity:1;stroke:none" />
        <rect
           y="0.060089111"
           x="803.16064"
           height="184.68567"
           width="144.33263"
           id="rect6561"
           style="fill:#212121;fill-opacity:0.73333333;stroke:none" />
      </g>
    </g>
    <path
       inkscape:connector-curvature="0"
       id="path6627"
       d="m 955.30711,864.85607 c -2.58894,-0.23024 -5.09014,-0.91791 -7.44626,-2.04716 -2.38368,-1.14246 -4.1612,-2.39956 -6.01723,-4.2556 -3.21511,-3.21512 -5.25403,-7.13327 -6.0597,-11.64477 -0.90527,-5.06923 0.14399,-10.55076 2.87819,-15.03538 1.70336,-2.79391 4.3858,-5.47634 7.17969,-7.1797 3.81327,-2.32484 8.43793,-3.46638 12.73714,-3.14399 2.9934,0.22446 5.37095,0.84537 7.9258,2.06987 2.38367,1.14247 4.16117,2.39959 6.01722,4.25563 3.2151,3.21511 5.25404,7.13326 6.0597,11.64476 0.90525,5.06923 -0.14398,10.55075 -2.87819,15.03537 -1.70336,2.79392 -4.38579,5.47636 -7.17971,7.17972 -3.94155,2.40304 -8.68821,3.52401 -13.21665,3.12125 z m 0.42822,-5.4252 c 0.0258,-0.59269 0.0658,-0.75596 0.24511,-0.99663 0.65508,-0.87975 2.06504,-0.77433 2.52196,0.18857 0.0895,0.18867 0.14093,0.51955 0.14093,0.90698 0,0.70238 -0.0709,0.66581 1.00173,0.51664 2.08882,-0.29053 4.64843,-1.23349 6.51596,-2.40046 2.07605,-1.29726 4.15629,-3.37753 5.45356,-5.45357 1.16699,-1.86753 2.10994,-4.42714 2.40047,-6.51596 0.14754,-1.06065 0.19666,-0.97961 -0.61556,-1.01486 -0.59268,-0.0258 -0.75595,-0.0658 -0.99662,-0.24508 -0.87976,-0.6551 -0.77434,-2.06506 0.18856,-2.52199 0.18868,-0.0895 0.51956,-0.14093 0.90697,-0.14093 0.70239,0 0.66582,0.0709 0.51665,-1.00172 -0.29053,-2.08882 -1.23348,-4.64842 -2.40047,-6.51596 -1.29727,-2.07605 -3.37751,-4.15629 -5.45356,-5.45356 -1.86753,-1.16698 -4.42714,-2.10994 -6.51597,-2.40047 -1.06063,-0.14753 -0.97959,-0.19666 -1.01485,0.61557 -0.0257,0.59268 -0.0658,0.75595 -0.24508,0.99662 -0.65511,0.87974 -2.06506,0.77434 -2.52199,-0.18856 -0.0895,-0.1887 -0.14093,-0.51957 -0.14093,-0.90697 0,-0.70239 0.0709,-0.66584 -1.00171,-0.51666 -2.08882,0.29053 -4.64845,1.23349 -6.51598,2.40047 -2.07605,1.29727 -4.15628,3.37751 -5.45354,5.45356 -1.16701,1.86754 -2.10995,4.42714 -2.40047,6.51596 -0.14753,1.06063 -0.19668,0.97961 0.61556,1.01487 0.59268,0.0258 0.75595,0.0658 0.99662,0.24508 0.87974,0.65508 0.77432,2.06506 -0.18856,2.52198 -0.1887,0.0895 -0.51957,0.14094 -0.90697,0.14094 -0.70239,0 -0.66584,-0.0709 -0.51665,1.00171 0.21901,1.57474 0.82641,3.49149 1.6059,5.06777 0.86699,1.75321 1.76237,2.98771 3.2355,4.46083 1.8399,1.83987 3.69698,3.04422 6.08952,3.94908 1.23561,0.46731 3.24898,0.94007 4.15274,0.9751 l 0.27041,0.01 0.0308,-0.70882 z m 9.14059,-6.48077 c -0.13975,-0.0756 -1.86848,-1.58193 -3.84157,-3.3473 -3.3768,-3.02132 -3.60651,-3.20982 -3.91279,-3.21078 -1.31615,-0.003 -2.64929,-1.03878 -2.99047,-2.32094 -0.32806,-1.23275 0.0152,-2.36323 0.99193,-3.2626 l 0.41969,-0.38663 0.22709,-4.46765 c 0.19221,-3.78196 0.2509,-4.5226 0.38242,-4.82557 0.49237,-1.13441 2.02446,-0.82547 2.18703,0.44103 0.0401,0.31273 0.39309,8.11532 0.39094,8.64233 -5.6e-4,0.16294 0.098,0.28946 0.38186,0.48954 0.65437,0.46125 1.24208,1.56203 1.24971,2.34078 0.002,0.1587 0.86378,1.19509 3.30527,3.9728 3.30319,3.75804 3.5798,4.12275 3.44712,4.5452 -0.0202,0.0641 -0.0597,0.22221 -0.088,0.3513 -0.0283,0.12908 -0.17281,0.373 -0.32122,0.54204 -0.52083,0.59319 -1.27303,0.79737 -1.82901,0.49645 z"
       style="fill:#212121;fill-opacity:0.73333333" />
    <path
       style="fill:#212121;fill-opacity:0.73333333;stroke:none;stroke-opacity:0.73333333"
       d="m 631.72836,678.24216 c -0.68709,-0.15037 -2.04639,-0.54708 -3.02067,-0.88161 -2.61463,-0.89774 -36.94433,-16.54233 -38.44953,-17.52206 -3.83048,-2.49327 -6.6206,-6.85538 -7.51324,-11.74634 -0.35998,-1.97242 -0.29861,-6.44651 0.12067,-8.79718 0.32199,-1.80519 0.3984,-2.00446 0.72848,-1.89971 0.20281,0.0644 10.07047,4.03727 21.92813,8.82866 l 21.55939,8.71162 0.12818,2.56563 c 0.31686,6.34177 1.99619,10.07089 5.47306,12.15337 1.73651,1.04011 5.24432,1.37006 7.73475,0.72755 6.1242,-1.57999 9.5966,-7.05645 16.87461,-26.6137 4.74194,-12.7424 16.30222,-46.61185 16.00943,-46.90464 -0.14182,-0.14181 -49.48551,-9.93673 -49.58035,-9.84189 -0.0467,0.0467 -3.97692,10.76277 -8.73385,23.81354 -4.75694,13.05076 -8.81529,24.05293 -9.01854,24.44926 -1.28292,2.50149 -4.60116,2.79817 -6.37719,0.57019 -0.46975,-0.58929 -0.60731,-0.98058 -0.67534,-1.92103 -0.0834,-1.15244 0.14167,-1.80459 9.3068,-26.97136 5.16572,-14.1847 9.62065,-26.13767 9.89984,-26.56216 0.59244,-0.9008 1.95944,-1.67131 2.9794,-1.67934 0.38663,-0.003 13.77702,2.59911 29.75639,5.78257 27.73791,5.52603 29.08541,5.81396 29.7599,6.35909 1.10612,0.89395 1.49603,1.71347 1.46741,3.08424 -0.0197,0.94588 -0.59104,2.90969 -2.88719,9.92499 -8.384,25.61511 -16.83898,49.13129 -20.49437,57.00182 -5.28673,11.38305 -10.39849,16.13879 -18.69027,17.38862 -2.37116,0.35741 -6.60778,0.34711 -8.2859,-0.0202 z m 11.46907,-29.91272 c -1.06253,-0.11939 -17.89795,-5.72217 -18.5846,-6.18491 -0.3684,-0.24826 -0.87452,-0.80252 -1.12474,-1.2317 -0.38296,-0.6569 -0.44226,-0.98646 -0.37485,-2.08345 0.0956,-1.55625 0.74281,-2.57374 2.00042,-3.14505 1.48451,-0.67438 2.04272,-0.55161 11.29308,2.48389 4.77816,1.56794 8.83564,2.93116 9.01661,3.02936 0.50918,0.27633 1.32929,1.22245 1.7061,1.96826 0.70745,1.40022 -0.0232,3.74672 -1.42174,4.56586 -0.72828,0.42658 -1.78796,0.6789 -2.51028,0.59774 z m -28.89059,-10.03413 c -1.55045,-0.74092 -2.3163,-1.8871 -2.3163,-3.46658 0,-2.34756 1.89336,-4.02502 4.26659,-3.78007 1.23,0.12694 2.00043,0.48657 2.83916,1.32531 1.54566,1.54566 1.20003,4.41746 -0.68484,5.69005 -0.98007,0.66171 -2.96934,0.7738 -4.10461,0.23129 z m 33.70569,-5.94615 c -7.19445,-2.32675 -16.27878,-5.36072 -16.68659,-5.57296 -0.65161,-0.33911 -1.25695,-1.00612 -1.69039,-1.86261 -0.48981,-0.96789 -0.30808,-2.74534 0.37185,-3.63676 0.81398,-1.0672 1.81491,-1.57885 3.06763,-1.56811 1.48428,0.0127 18.33903,5.52743 19.25865,6.30124 1.00402,0.84482 1.44325,1.92201 1.32327,3.24519 -0.25058,2.76339 -2.63141,4.06845 -5.64442,3.09401 z m -26.53218,-8.62285 c -1.49244,-0.31868 -2.28841,-0.88431 -2.93065,-2.0826 -1.07464,-2.00506 0.0315,-4.59779 2.28232,-5.34946 0.9321,-0.31128 2.88567,0.0185 3.77961,0.63795 1.37378,0.95203 2.00485,2.93557 1.41849,4.45854 -0.35384,0.91906 -1.37598,1.89114 -2.33053,2.21639 -0.98198,0.33459 -1.16452,0.34439 -2.21924,0.11918 z m 34.68837,-7.88959 c -0.54047,-0.0717 -4.7414,-1.1615 -9.3354,-2.42193 -9.03265,-2.47824 -9.52374,-2.67558 -10.26257,-4.1238 -1.2932,-2.53488 0.49867,-5.52762 3.28559,-5.48755 0.83935,0.0121 16.53065,4.12406 18.32721,4.80275 0.73018,0.27584 1.57743,1.10516 2.03212,1.98914 0.70122,1.36323 0.37451,3.11586 -0.79181,4.24773 -0.8866,0.86041 -1.90795,1.17219 -3.25514,0.99366 z m -29.33499,-8.29652 c -3.93142,-1.42581 -3.3029,-7.01819 0.82727,-7.36069 2.60592,-0.2161 4.61267,1.47272 4.62444,3.89179 0.0127,2.62688 -2.81398,4.42552 -5.45171,3.4689 z"
       id="path10729"
       inkscape:connector-curvature="0" />
    <path
       style="fill:#212121;fill-opacity:0.73333333"
       d="m 1272.8667,481.84209 c -0.666,-0.0406 -2.3505,-0.22526 -3.7433,-0.41032 -16.0815,-2.13698 -30.37,-11.08932 -39.4176,-24.69689 -14.6702,-22.06372 -11.9787,-51.22216 6.4866,-70.27492 17.0256,-17.56722 43.2307,-22.13921 65.1899,-11.37368 16.9074,8.28887 28.3414,24.17208 31.0728,43.164 0.4708,3.274 0.5332,10.93313 0.1139,13.98253 -1.0177,7.40038 -2.8878,13.43469 -6.0044,19.37528 -4.4955,8.56883 -10.8302,15.59337 -18.9011,20.95936 -3.1578,2.09943 -8.3715,4.77565 -11.4558,5.88027 -7.651,2.7401 -15.4554,3.87507 -23.341,3.39437 z m 8.8397,-7.12099 c 8.181,-0.82502 16.1964,-3.7277 23.0978,-8.36458 1.9826,-1.33213 4.6837,-3.42639 4.7859,-3.71067 0.1365,-0.38017 -7.9304,-2.64774 -12.5883,-3.53853 -2.9287,-0.56009 -4.5789,-1.37994 -6.3654,-3.16245 -1.4808,-1.47746 -3.3798,-4.29181 -4.34,-6.43186 -0.7349,-1.63801 -0.7105,-1.71764 0.7105,-2.32049 0.5411,-0.22954 0.6846,-0.17965 1.5065,0.52389 1.2222,1.04622 3.5261,2.22881 5.2721,2.7062 1.957,0.53509 6.0747,0.53349 8.5818,-0.003 2.9097,-0.62305 9.2542,-2.96943 9.2542,-3.42249 0,-0.0828 -0.5436,-0.32186 -1.2081,-0.5313 -1.6891,-0.53244 -4.333,-2.36598 -5.5292,-3.83446 -1.2878,-1.5808 -2.3662,-3.72638 -3.0376,-6.04308 -0.8679,-2.99494 -0.9022,-3.88495 -0.2737,-7.10815 1.1025,-5.65471 1.5014,-9.39547 1.622,-15.21004 0.1649,-7.95829 -0.2877,-11.12078 -2.1431,-14.97369 -1.666,-3.4597 -4.1072,-5.97897 -6.5942,-6.805 -2.2376,-0.74323 -5.2256,-0.28721 -7.356,1.12265 l -0.8777,0.5808 -0.444,-0.63345 c -0.7292,-1.04028 -2.2388,-2.37806 -3.3918,-3.00559 -2.3355,-1.27111 -5.7843,-1.56213 -11.064,-0.93358 -7.4885,0.89151 -13.0489,3.32963 -16.7771,7.35634 -1.6322,1.76297 -2.5472,3.47527 -3.3624,6.2921 -0.9897,3.42014 -1.2619,5.61844 -1.3776,11.12653 -0.1308,6.22524 0.2288,9.81293 1.4345,14.31282 0.5077,1.89534 0.7939,3.45147 0.7896,4.29385 -0.012,2.36138 -1.3514,6.46638 -2.8096,8.61227 -1.5255,2.24494 -4.0243,4.21606 -6.5352,5.15508 l -1.3698,0.51226 1.1871,0.52715 c 2.0041,0.89003 5.9577,2.19131 7.9151,2.6052 2.4932,0.5272 6.639,0.54065 8.5756,0.0278 1.885,-0.49913 4.2574,-1.68185 5.5755,-2.77952 l 1.0614,-0.88392 0.9204,0.57311 c 0.5062,0.31521 0.9513,0.59902 0.9892,0.6307 0.038,0.0317 -0.2786,0.78982 -0.7033,1.68476 -1.8196,3.83437 -4.4234,6.95641 -6.9047,8.27895 -0.8813,0.46973 -2.1074,0.85265 -3.7143,1.15995 -4.381,0.83782 -12.638,3.12782 -12.638,3.50503 0,0.19568 3.0472,2.56152 4.9193,3.8194 6.578,4.41967 14.8973,7.46045 22.6166,8.26652 2.6728,0.27911 7.9361,0.29046 10.59,0.0229 z"
       id="path9005"
       inkscape:connector-curvature="0" />
    <g
       id="g11706"
       transform="matrix(0.95817168,0,0,0.95817168,325.24367,-252.27649)">
      <path
         d="m 122.43259,631.53407 c 0,0 -7.45125,-4.41 -15.775,9 -4.15625,6.66625 -8.531247,17.74625 -12.303747,35.9875 44.221247,-34.235 28.078747,-44.9875 28.078747,-44.9875"
         style="fill:#3c910f;fill-opacity:1;fill-rule:nonzero;stroke:none"
         id="path4389"
         inkscape:connector-curvature="0" />
      <path
         inkscape:connector-curvature="0"
         id="path4379"
         style="fill:#7a001a;fill-opacity:1;fill-rule:nonzero;stroke:none"
         d="m 89.581333,732.82811 c -10.775,0 -19.51,-8.735 -19.51,-19.51 0,-10.775 8.735,-19.50875 19.51,-19.50875 10.774997,0 19.509997,8.73375 19.509997,19.50875 0,10.775 -8.735,19.51 -19.509997,19.51 m 24.364997,-43.875 0,0 c -13.45625,-13.45625 -35.273747,-13.45625 -48.729997,0 l 0,0 c -13.45625,13.4563 -13.45625,35.2738 0,48.73 l 24.365,24.365 24.364997,-24.365 c 13.45625,-13.4562 13.45625,-35.2737 0,-48.73" />
      <path
         inkscape:connector-curvature="0"
         id="path4383"
         style="fill:#3c910f;fill-opacity:1;fill-rule:nonzero;stroke:none"
         d="m 89.581333,623.62332 c 0,0 -8.655,0.20375 -8.61625,15.9875 0.004,7.85625 2.15875,19.57125 8.61625,37.04375 19.387497,-52.45625 0,-53.03125 0,-53.03125" />
      <path
         inkscape:connector-curvature="0"
         id="path4387"
         style="fill:#3c910f;fill-opacity:1;fill-rule:nonzero;stroke:none"
         d="m 56.730213,631.66682 c 0,0 7.45125,-4.41 15.77375,9 4.1575,6.66625 8.5325,17.74625 12.305,35.9875 -44.22125,-34.235 -28.07875,-44.9875 -28.07875,-44.9875" />
      <text
         sodipodi:linespacing="125%"
         id="text4401"
         y="725.00385"
         x="78.245041"
         style="font-style:normal;font-weight:normal;font-size:40px;line-height:125%;font-family:sans-serif;letter-spacing:0px;word-spacing:0px;fill:#7a001a;fill-opacity:1;stroke:none;stroke-width:1px;stroke-linecap:butt;stroke-linejoin:miter;stroke-opacity:1"
         xml:space="preserve"><tspan
           style="font-style:normal;font-variant:normal;font-weight:normal;font-stretch:normal;font-family:'Abyssinica SIL';-inkscape-font-specification:'Abyssinica SIL';fill:#7a001a;fill-opacity:1"
           y="725.00385"
           x="78.245041"
           id="tspan4403"
           sodipodi:role="line">1</tspan></text>
    </g>
    <g
       id="g11695"
       transform="matrix(0.95817168,0,0,0.95817168,131.69577,-527.15341)">
      <path
         inkscape:connector-curvature="0"
         id="path4405"
         style="fill:#3c910f;fill-opacity:1;fill-rule:nonzero;stroke:none"
         d="m 847.07154,931.67211 c 0,0 -7.45125,-4.41 -15.775,9 -4.15625,6.66625 -8.53125,17.74625 -12.30375,35.9875 44.22125,-34.235 28.07875,-44.9875 28.07875,-44.9875" />
      <g
         style="fill:#7a001a;fill-opacity:1"
         transform="matrix(1.25,0,0,-1.25,814.22029,1032.9661)"
         id="g4407">
        <path
           inkscape:connector-curvature="0"
           id="path4409"
           style="fill:#7a001a;fill-opacity:1;fill-rule:nonzero;stroke:none"
           d="m 0,0 c -8.62,0 -15.608,6.988 -15.608,15.608 0,8.62 6.988,15.607 15.608,15.607 8.62,0 15.608,-6.987 15.608,-15.607 C 15.608,6.988 8.62,0 0,0 m 19.492,35.1 0,0 c -10.765,10.765 -28.219,10.765 -38.984,0 l 0,0 c -10.765,-10.765 -10.765,-28.219 0,-38.984 L 0,-23.376 19.492,-3.884 c 10.765,10.765 10.765,28.219 0,38.984" />
      </g>
      <g
         style="fill:#3c910f;fill-opacity:1"
         transform="matrix(1.25,0,0,-1.25,814.22029,923.76136)"
         id="g4411">
        <path
           inkscape:connector-curvature="0"
           id="path4413"
           style="fill:#3c910f;fill-opacity:1;fill-rule:nonzero;stroke:none"
           d="M 0,0 C 0,0 -6.924,-0.163 -6.893,-12.79 -6.89,-19.075 -5.166,-28.447 0,-42.425 15.51,-0.46 0,0 0,0" />
      </g>
      <g
         style="fill:#3c910f;fill-opacity:1"
         transform="matrix(1.25,0,0,-1.25,781.36916,931.80486)"
         id="g4415">
        <path
           inkscape:connector-curvature="0"
           id="path4417"
           style="fill:#3c910f;fill-opacity:1;fill-rule:nonzero;stroke:none"
           d="m 0,0 c 0,0 5.961,3.528 12.619,-7.2 3.326,-5.333 6.826,-14.197 9.844,-28.79 C -12.914,-8.602 0,0 0,0" />
      </g>
      <text
         xml:space="preserve"
         style="font-style:normal;font-weight:normal;font-size:40px;line-height:125%;font-family:sans-serif;letter-spacing:0px;word-spacing:0px;fill:#7a001a;fill-opacity:1;stroke:none;stroke-width:1px;stroke-linecap:butt;stroke-linejoin:miter;stroke-opacity:1"
         x="804.03442"
         y="1025.3719"
         id="text4419"
         sodipodi:linespacing="125%"><tspan
           sodipodi:role="line"
           id="tspan4421"
           x="804.03442"
           y="1025.3719"
           style="font-style:normal;font-variant:normal;font-weight:normal;font-stretch:normal;font-family:'Abyssinica SIL';-inkscape-font-specification:'Abyssinica SIL';fill:#7a001a;fill-opacity:1">2</tspan></text>
    </g>
    <g
       id="g11714"
       transform="matrix(0.95817168,0,0,0.95817168,-134.3134,-304.82685)">
      <path
         d="m 925.07154,931.67211 c 0,0 -7.45125,-4.41 -15.775,9 -4.15625,6.66625 -8.53125,17.74625 -12.30375,35.9875 44.22125,-34.235 28.07875,-44.9875 28.07875,-44.9875"
         style="fill:#3c910f;fill-opacity:1;fill-rule:nonzero;stroke:none"
         id="path4423"
         inkscape:connector-curvature="0" />
      <g
         id="g4425"
         transform="matrix(1.25,0,0,-1.25,892.22029,1032.9661)"
         style="fill:#7a001a;fill-opacity:1">
        <path
           d="m 0,0 c -8.62,0 -15.608,6.988 -15.608,15.608 0,8.62 6.988,15.607 15.608,15.607 8.62,0 15.608,-6.987 15.608,-15.607 C 15.608,6.988 8.62,0 0,0 m 19.492,35.1 0,0 c -10.765,10.765 -28.219,10.765 -38.984,0 l 0,0 c -10.765,-10.765 -10.765,-28.219 0,-38.984 L 0,-23.376 19.492,-3.884 c 10.765,10.765 10.765,28.219 0,38.984"
           style="fill:#7a001a;fill-opacity:1;fill-rule:nonzero;stroke:none"
           id="path4427"
           inkscape:connector-curvature="0" />
      </g>
      <g
         id="g4429"
         transform="matrix(1.25,0,0,-1.25,892.22029,923.76136)"
         style="fill:#3c910f;fill-opacity:1">
        <path
           d="M 0,0 C 0,0 -6.924,-0.163 -6.893,-12.79 -6.89,-19.075 -5.166,-28.447 0,-42.425 15.51,-0.46 0,0 0,0"
           style="fill:#3c910f;fill-opacity:1;fill-rule:nonzero;stroke:none"
           id="path4431"
           inkscape:connector-curvature="0" />
      </g>
      <g
         id="g4433"
         transform="matrix(1.25,0,0,-1.25,859.36917,931.80486)"
         style="fill:#3c910f;fill-opacity:1">
        <path
           d="m 0,0 c 0,0 5.961,3.528 12.619,-7.2 3.326,-5.333 6.826,-14.197 9.844,-28.79 C -12.914,-8.602 0,0 0,0"
           style="fill:#3c910f;fill-opacity:1;fill-rule:nonzero;stroke:none"
           id="path4435"
           inkscape:connector-curvature="0" />
      </g>
      <text
         sodipodi:linespacing="125%"
         id="text4437"
         y="1025.3719"
         x="882.03326"
         style="font-style:normal;font-weight:normal;font-size:40px;line-height:125%;font-family:sans-serif;letter-spacing:0px;word-spacing:0px;fill:#7a001a;fill-opacity:1;stroke:none;stroke-width:1px;stroke-linecap:butt;stroke-linejoin:miter;stroke-opacity:1"
         xml:space="preserve"><tspan
           style="font-style:normal;font-variant:normal;font-weight:normal;font-stretch:normal;font-family:'Abyssinica SIL';-inkscape-font-specification:'Abyssinica SIL';fill:#7a001a;fill-opacity:1"
           y="1025.3719"
           x="882.03326"
           id="tspan4439"
           sodipodi:role="line">3</tspan></text>
    </g>
    <g
       id="g11725"
       transform="matrix(0.95817168,0,0,0.95817168,-345.89474,-101.7427)">
      <path
         inkscape:connector-curvature="0"
         id="path4441"
         style="fill:#3c910f;fill-opacity:1;fill-rule:nonzero;stroke:none"
         d="m 1005.8326,932.36238 c 0,0 -7.45126,-4.41 -15.77501,9 -4.15625,6.66625 -8.53125,17.74625 -12.30375,35.9875 44.22126,-34.23501 28.07876,-44.9875 28.07876,-44.9875" />
      <g
         style="fill:#7a001a;fill-opacity:1"
         transform="matrix(1.25,0,0,-1.25,972.98134,1033.6564)"
         id="g4443">
        <path
           inkscape:connector-curvature="0"
           id="path4445"
           style="fill:#7a001a;fill-opacity:1;fill-rule:nonzero;stroke:none"
           d="m 0,0 c -8.62,0 -15.608,6.988 -15.608,15.608 0,8.62 6.988,15.607 15.608,15.607 8.62,0 15.608,-6.987 15.608,-15.607 C 15.608,6.988 8.62,0 0,0 m 19.492,35.1 0,0 c -10.765,10.765 -28.219,10.765 -38.984,0 l 0,0 c -10.765,-10.765 -10.765,-28.219 0,-38.984 L 0,-23.376 19.492,-3.884 c 10.765,10.765 10.765,28.219 0,38.984" />
      </g>
      <g
         style="fill:#3c910f;fill-opacity:1"
         transform="matrix(1.25,0,0,-1.25,972.98134,924.45163)"
         id="g4447">
        <path
           inkscape:connector-curvature="0"
           id="path4449"
           style="fill:#3c910f;fill-opacity:1;fill-rule:nonzero;stroke:none"
           d="M 0,0 C 0,0 -6.924,-0.163 -6.893,-12.79 -6.89,-19.075 -5.166,-28.447 0,-42.425 15.51,-0.46 0,0 0,0" />
      </g>
      <g
         style="fill:#3c910f;fill-opacity:1"
         transform="matrix(1.25,0,0,-1.25,940.13022,932.49513)"
         id="g4451">
        <path
           inkscape:connector-curvature="0"
           id="path4453"
           style="fill:#3c910f;fill-opacity:1;fill-rule:nonzero;stroke:none"
           d="m 0,0 c 0,0 5.961,3.528 12.619,-7.2 3.326,-5.333 6.826,-14.197 9.844,-28.79 C -12.914,-8.602 0,0 0,0" />
      </g>
      <text
         xml:space="preserve"
         style="font-style:normal;font-weight:normal;font-size:40px;line-height:125%;font-family:sans-serif;letter-spacing:0px;word-spacing:0px;fill:#7a001a;fill-opacity:1;stroke:none;stroke-width:1px;stroke-linecap:butt;stroke-linejoin:miter;stroke-opacity:1"
         x="962.79425"
         y="1026.0623"
         id="text4455"
         sodipodi:linespacing="125%"><tspan
           sodipodi:role="line"
           id="tspan4457"
           x="962.79425"
           y="1026.0623"
           style="font-style:normal;font-variant:normal;font-weight:normal;font-stretch:normal;font-family:'Abyssinica SIL';-inkscape-font-specification:'Abyssinica SIL';fill:#7a001a;fill-opacity:1">4</tspan></text>
    </g>
    <g
       id="g11674"
       transform="matrix(0.82358968,0,0,0.82358968,615.97991,290.91029)">
      <path
         inkscape:connector-curvature="0"
         id="path10999"
         d="m 72,173.6187 c 0,-0.79828 1.86057,-1.84978 4.40817,-2.49127 l 4.40818,-1.10999 1.14656,-7.25873 c 0.6306,-3.99229 1.38268,-8.49622 1.67128,-10.00872 l 0.52472,-2.75 -40.52276,0 -40.52275,0 -1.5567,-2.22251 C 0.18336,145.81676 0,137.21817 0,74.777489 0,5.33333 0.0377,3.96232 2,2 3.97456,0.02543 5.33333,0 108.84501,0 209.14716,0 213.76173,0.0792 215.34501,1.82874 216.79792,3.43418 217,6.91417 217,30.328736 l 0,26.671259 16.3,0 c 11.34444,0 16.66483,0.364826 17.5,1.2 0.90536,0.905358 1.2,15.242891 1.2,58.393005 0,51.23006 -0.16492,57.2563 -1.58179,57.8 -2.06575,0.7927 -84.77067,0.7927 -86.83642,0 C 162.2621,173.88659 162,171.81538 162,161.893 l 0,-11.89301 -14,0 c -13.46347,0 -14,0.0788 -14,2.05737 0,3.758 2.28406,16.42472 3.16783,17.56784 0.47846,0.61887 2.66143,1.41168 4.85105,1.76182 2.57287,0.41142 3.98112,1.16302 3.98112,2.12479 0,1.29076 -4.90836,1.48818 -37,1.48818 -30.8089,0 -37,-0.23113 -37,-1.38129 z m 137.5,-5.10501 c 0,-2.20616 -3.1089,-3.3048 -4.739,-1.6747 -1.68076,1.68076 -0.0229,4.3372 2.48453,3.98114 1.47517,-0.20948 2.25447,-1.00674 2.25447,-2.30644 z m 33.5,-54.0137 0,-47.499995 -36,0 -36,0 0,47.499995 0,47.5 36,0 36,0 0,-47.5 z m -130.49632,24.49594 c 1.50611,-1.66424 1.61864,-2.43205 0.66364,-4.52807 -1.45387,-3.19088 -3.62474,-4.03612 -6.73109,-2.62077 -1.74371,0.79449 -2.43623,1.91204 -2.43623,3.93146 0,5.2044 4.99511,7.0943 8.50368,3.21738 z M 162,90.199995 c 0,-22.622222 0.31861,-31.118615 1.2,-32 0.85452,-0.854516 7.04444,-1.2 21.5,-1.2 l 20.3,0 0,-22.5 L 205,12 108.5,12 12,12 l 0,54.499995 0,54.499995 75,0 75,0 0,-30.799995 z m 100.23304,83.965185 c -0.98163,-0.62308 -1.20683,-6.75634 -1,-27.23469 l 0.26696,-26.4305 12.35939,-0.28166 c 8.25828,-0.18819 12.82083,0.1013 13.75,0.87245 1.8832,1.56291 2.06139,50.83843 0.19061,52.70921 -1.37346,1.37346 -23.48098,1.68923 -25.56696,0.36519 z m 14.58651,-3.99352 c 0.2376,-1.61475 -0.19604,-2.17167 -1.69098,-2.17167 -2.6319,0 -3.61691,1.70666 -2.06457,3.57711 1.62384,1.95661 3.35624,1.3083 3.75555,-1.40544 z M 286,146.99999 l 0,-19 -11,0 -11,0 0,19 0,19 11,0 11,0 0,-19 z"
         style="fill:#212121;fill-opacity:0.73333333" />
      <rect
         y="18.271318"
         x="19.191263"
         height="15.193086"
         width="59.173073"
         id="rect11541"
         style="fill:#212121;fill-opacity:0.73333333;stroke:none;stroke-opacity:0.73333333" />
      <rect
         style="fill:#212121;fill-opacity:0.73333333;stroke:none;stroke-opacity:0.73333333"
         id="rect11543"
         width="23.989084"
         height="15.193086"
         x="175.12032"
         y="18.271318" />
      <rect
         y="50.256763"
         x="21.590179"
         height="51.976345"
         width="34.384354"
         id="rect11545"
         style="fill:#212121;fill-opacity:0.73333333;stroke:none;stroke-opacity:0.73333333" />
      <rect
         style="fill:#212121;fill-opacity:0.73333333;stroke:none;stroke-opacity:0.73333333"
         id="rect11547"
         width="29.586536"
         height="27.522358"
         x="73.566521"
         y="50.88903" />
      <rect
         y="50.88903"
         x="117.54651"
         height="27.522358"
         width="29.586536"
         id="rect11549"
         style="fill:#212121;fill-opacity:0.73333333;stroke:none;stroke-opacity:0.73333333" />
      <rect
         y="85.273384"
         x="73.566521"
         height="27.522358"
         width="29.586536"
         id="rect11553"
         style="fill:#212121;fill-opacity:0.73333333;stroke:none;stroke-opacity:0.73333333" />
      <rect
         style="fill:#212121;fill-opacity:0.73333333;stroke:none;stroke-opacity:0.73333333"
         id="rect11555"
         width="29.586536"
         height="27.522358"
         x="117.54651"
         y="85.273384" />
      <rect
         style="fill:#212121;fill-opacity:0.73333333;stroke:none;stroke-opacity:0.73333333"
         id="rect11557"
         width="59.173073"
         height="11.994541"
         x="176.71957"
         y="70.247665" />
      <rect
         y="89.271568"
         x="177.51923"
         height="27.522358"
         width="29.586536"
         id="rect11561"
         style="fill:#212121;fill-opacity:0.73333333;stroke:none;stroke-opacity:0.73333333" />
      <rect
         style="fill:#212121;fill-opacity:0.73333333;stroke:none;stroke-opacity:0.73333333"
         id="rect11563"
         width="29.586536"
         height="27.522358"
         x="209.50467"
         y="89.271568" />
      <rect
         style="fill:#212121;fill-opacity:0.73333333;stroke:none;stroke-opacity:0.73333333"
         id="rect11565"
         width="29.586536"
         height="27.522358"
         x="177.51923"
         y="121.25702" />
      <rect
         y="121.25702"
         x="209.50467"
         height="27.522358"
         width="29.586536"
         id="rect11567"
         style="fill:#212121;fill-opacity:0.73333333;stroke:none;stroke-opacity:0.73333333" />
      <rect
         y="133.86252"
         x="267.18268"
         height="14.72818"
         width="15.832795"
         id="rect11569"
         style="fill:#212121;fill-opacity:0.73333333;stroke:none;stroke-opacity:0.73333333" />
      <rect
         style="fill:#212121;fill-opacity:0.73333333;stroke:none;stroke-opacity:0.73333333"
         id="rect11573"
         width="15.832795"
         height="14.72818"
         x="267.18268"
         y="149.48247" />
      <rect
         style="fill:#212121;fill-opacity:0.73333333;stroke:none;stroke-opacity:0.73333333"
         id="rect11575"
         width="15.832795"
         height="2.7128327"
         x="267.18268"
         y="129.05638" />
    </g>
    <g
       id="g11736"
       transform="matrix(0.14970077,0,0,0.14970077,292.64127,410.09304)"
       style="stroke:#212121;stroke-opacity:0.73333333">
      <path
         sodipodi:nodetypes="cccccccccccccccc"
         inkscape:connector-curvature="0"
         id="path11738"
         d="m 30.681243,281.89067 c 10.738435,-14.57358 19.942809,-27.61311 19.942809,-27.61311 l -0.767031,219.37089 113.520599,0.76703 0.76703,-153.40622 182.5534,-0.76703 0.76703,153.40622 113.5206,0.76703 -0.76703,-220.90496 22.2439,28.38015 19.17578,-13.03952 L 403.45835,115.44493 255.42135,34.906665 108.15138,116.21196 9.9714041,268.08411 Z"
         style="fill:#212121;fill-opacity:0.73333333;fill-rule:evenodd;stroke:#212121;stroke-width:1px;stroke-linecap:butt;stroke-linejoin:miter;stroke-opacity:0.73333333" />
      <rect
         y="171.4382"
         x="164.14465"
         height="43.720772"
         width="42.953739"
         id="rect11740"
         style="fill:#ffffff;fill-opacity:1;stroke:#212121;stroke-opacity:0.73333333" />
      <rect
         inkscape:transform-center-y="3.8351554"
         inkscape:transform-center-x="73.634984"
         style="fill:#ffffff;fill-opacity:1;stroke:#212121;stroke-opacity:0.73333333"
         id="rect11742"
         width="42.953739"
         height="43.720772"
         x="234.71152"
         y="171.4382" />
      <rect
         y="172.20523"
         x="305.27838"
         height="43.720772"
         width="42.953739"
         id="rect11744"
         style="fill:#ffffff;fill-opacity:1;stroke:#212121;stroke-opacity:0.73333333"
         inkscape:transform-center-x="73.634984"
         inkscape:transform-center-y="3.8351554" />
      <path
         transform="matrix(0.50955222,0.92781035,-0.55623765,0.88749576,327.06567,-129.10634)"
         inkscape:transform-center-y="5.030275"
         inkscape:transform-center-x="-20.229432"
         d="M 230.87635,364.73002 210.32238,448.6978 147.88114,388.91364 Z"
         inkscape:randomized="0"
         inkscape:rounded="0"
         inkscape:flatsided="true"
         sodipodi:arg2="0.24006358"
         sodipodi:arg1="-0.80713397"
         sodipodi:r2="69.578423"
         sodipodi:r1="49.910095"
         sodipodi:cy="400.78049"
         sodipodi:cx="196.35995"
         sodipodi:sides="3"
         id="path11746"
         style="fill:#212121;fill-opacity:0.73333333;stroke:#212121;stroke-opacity:0.73333333"
         sodipodi:type="star" />
      <path
         sodipodi:type="star"
         style="fill:#212121;fill-opacity:0.73333333;stroke:#212121;stroke-opacity:0.73333333"
         id="path11748"
         sodipodi:sides="3"
         sodipodi:cx="196.35995"
         sodipodi:cy="400.78049"
         sodipodi:r1="49.910095"
         sodipodi:r2="69.578423"
         sodipodi:arg1="-0.80713397"
         sodipodi:arg2="0.24006358"
         inkscape:flatsided="true"
         inkscape:rounded="0"
         inkscape:randomized="0"
         d="M 230.87635,364.73002 210.32238,448.6978 147.88114,388.91364 Z"
         inkscape:transform-center-x="20.628302"
         inkscape:transform-center-y="-5.1231362"
         transform="matrix(-0.52083945,-0.92152145,0.54536311,-0.89421928,191.75651,946.62936)" />
      <path
         transform="matrix(-0.92553745,0.5136691,-0.88995815,-0.55228935,794.42118,481.15418)"
         inkscape:transform-center-y="20.37496"
         inkscape:transform-center-x="5.06413"
         d="M 230.87635,364.73002 210.32238,448.6978 147.88114,388.91364 Z"
         inkscape:randomized="0"
         inkscape:rounded="0"
         inkscape:flatsided="true"
         sodipodi:arg2="0.24006358"
         sodipodi:arg1="-0.80713397"
         sodipodi:r2="69.578423"
         sodipodi:r1="49.910095"
         sodipodi:cy="400.78049"
         sodipodi:cx="196.35995"
         sodipodi:sides="3"
         id="path11750"
         style="fill:#212121;fill-opacity:0.73333333;stroke:#212121;stroke-opacity:0.73333333"
         sodipodi:type="star" />
      <path
         sodipodi:type="star"
         style="fill:#212121;fill-opacity:0.73333333;stroke:#212121;stroke-opacity:0.73333333"
         id="path11752"
         sodipodi:sides="3"
         sodipodi:cx="196.35995"
         sodipodi:cy="400.78049"
         sodipodi:r1="49.910095"
         sodipodi:r2="69.578423"
         sodipodi:arg1="-0.80713397"
         sodipodi:arg2="0.24006358"
         inkscape:flatsided="true"
         inkscape:rounded="0"
         inkscape:randomized="0"
         d="M 230.87635,364.73002 210.32238,448.6978 147.88114,388.91364 Z"
         inkscape:transform-center-x="-5.13958"
         inkscape:transform-center-y="-20.619524"
         transform="matrix(0.9203882,-0.52283943,0.8954015,0.54341991,-283.67387,341.21599)" />
    </g>
    <g
       style="stroke:#212121;stroke-opacity:0.73333333"
       transform="matrix(0.14970077,0,0,0.14970077,347.04449,491.69786)"
       id="g11754">
      <path
         style="fill:#212121;fill-opacity:0.73333333;fill-rule:evenodd;stroke:#212121;stroke-width:1px;stroke-linecap:butt;stroke-linejoin:miter;stroke-opacity:0.73333333"
         d="m 30.681243,281.89067 c 10.738435,-14.57358 19.942809,-27.61311 19.942809,-27.61311 l -0.767031,219.37089 113.520599,0.76703 0.76703,-153.40622 182.5534,-0.76703 0.76703,153.40622 113.5206,0.76703 -0.76703,-220.90496 22.2439,28.38015 19.17578,-13.03952 L 403.45835,115.44493 255.42135,34.906665 108.15138,116.21196 9.9714041,268.08411 Z"
         id="path11756"
         inkscape:connector-curvature="0"
         sodipodi:nodetypes="cccccccccccccccc" />
      <rect
         style="fill:#ffffff;fill-opacity:1;stroke:#212121;stroke-opacity:0.73333333"
         id="rect11758"
         width="42.953739"
         height="43.720772"
         x="164.14465"
         y="171.4382" />
      <rect
         y="171.4382"
         x="234.71152"
         height="43.720772"
         width="42.953739"
         id="rect11760"
         style="fill:#ffffff;fill-opacity:1;stroke:#212121;stroke-opacity:0.73333333"
         inkscape:transform-center-x="73.634984"
         inkscape:transform-center-y="3.8351554" />
      <rect
         inkscape:transform-center-y="3.8351554"
         inkscape:transform-center-x="73.634984"
         style="fill:#ffffff;fill-opacity:1;stroke:#212121;stroke-opacity:0.73333333"
         id="rect11762"
         width="42.953739"
         height="43.720772"
         x="305.27838"
         y="172.20523" />
      <path
         sodipodi:type="star"
         style="fill:#212121;fill-opacity:0.73333333;stroke:#212121;stroke-opacity:0.73333333"
         id="path11764"
         sodipodi:sides="3"
         sodipodi:cx="196.35995"
         sodipodi:cy="400.78049"
         sodipodi:r1="49.910095"
         sodipodi:r2="69.578423"
         sodipodi:arg1="-0.80713397"
         sodipodi:arg2="0.24006358"
         inkscape:flatsided="true"
         inkscape:rounded="0"
         inkscape:randomized="0"
         d="M 230.87635,364.73002 210.32238,448.6978 147.88114,388.91364 Z"
         inkscape:transform-center-x="-20.229432"
         inkscape:transform-center-y="5.030275"
         transform="matrix(0.50955222,0.92781035,-0.55623765,0.88749576,327.06567,-129.10634)" />
      <path
         transform="matrix(-0.52083945,-0.92152145,0.54536311,-0.89421928,191.75651,946.62936)"
         inkscape:transform-center-y="-5.1231362"
         inkscape:transform-center-x="20.628302"
         d="M 230.87635,364.73002 210.32238,448.6978 147.88114,388.91364 Z"
         inkscape:randomized="0"
         inkscape:rounded="0"
         inkscape:flatsided="true"
         sodipodi:arg2="0.24006358"
         sodipodi:arg1="-0.80713397"
         sodipodi:r2="69.578423"
         sodipodi:r1="49.910095"
         sodipodi:cy="400.78049"
         sodipodi:cx="196.35995"
         sodipodi:sides="3"
         id="path11766"
         style="fill:#212121;fill-opacity:0.73333333;stroke:#212121;stroke-opacity:0.73333333"
         sodipodi:type="star" />
      <path
         sodipodi:type="star"
         style="fill:#212121;fill-opacity:0.73333333;stroke:#212121;stroke-opacity:0.73333333"
         id="path11768"
         sodipodi:sides="3"
         sodipodi:cx="196.35995"
         sodipodi:cy="400.78049"
         sodipodi:r1="49.910095"
         sodipodi:r2="69.578423"
         sodipodi:arg1="-0.80713397"
         sodipodi:arg2="0.24006358"
         inkscape:flatsided="true"
         inkscape:rounded="0"
         inkscape:randomized="0"
         d="M 230.87635,364.73002 210.32238,448.6978 147.88114,388.91364 Z"
         inkscape:transform-center-x="5.06413"
         inkscape:transform-center-y="20.37496"
         transform="matrix(-0.92553745,0.5136691,-0.88995815,-0.55228935,794.42118,481.15418)" />
      <path
         transform="matrix(0.9203882,-0.52283943,0.8954015,0.54341991,-283.67387,341.21599)"
         inkscape:transform-center-y="-20.619524"
         inkscape:transform-center-x="-5.13958"
         d="M 230.87635,364.73002 210.32238,448.6978 147.88114,388.91364 Z"
         inkscape:randomized="0"
         inkscape:rounded="0"
         inkscape:flatsided="true"
         sodipodi:arg2="0.24006358"
         sodipodi:arg1="-0.80713397"
         sodipodi:r2="69.578423"
         sodipodi:r1="49.910095"
         sodipodi:cy="400.78049"
         sodipodi:cx="196.35995"
         sodipodi:sides="3"
         id="path11770"
         style="fill:#212121;fill-opacity:0.73333333;stroke:#212121;stroke-opacity:0.73333333"
         sodipodi:type="star" />
    </g>
    <flowRoot
       xml:space="preserve"
       id="flowRoot11791"
       style="font-style:normal;font-weight:normal;font-size:10px;line-height:125%;font-family:sans-serif;letter-spacing:0px;word-spacing:0px;fill:#000000;fill-opacity:1;stroke:none;stroke-width:1px;stroke-linecap:butt;stroke-linejoin:miter;stroke-opacity:1"
       transform="translate(0,308.26772)"><flowRegion
         id="flowRegion11793"><rect
           id="rect11795"
           width="113.90673"
           height="95.205627"
           x="447.12643"
           y="28.352175"
           style="font-size:10px" /></flowRegion><flowPara
         id="flowPara11797"></flowPara></flowRoot>    <text
       xml:space="preserve"
       style="font-style:normal;font-weight:normal;font-size:40px;line-height:125%;font-family:sans-serif;letter-spacing:0px;word-spacing:0px;fill:#000000;fill-opacity:1;stroke:none;stroke-width:1px;stroke-linecap:butt;stroke-linejoin:miter;stroke-opacity:1"
       x="454.73389"
       y="383.23038"
       id="text11799"
       sodipodi:linespacing="125%"><tspan
         sodipodi:role="line"
         x="454.73389"
         y="383.23038"
         style="font-size:12.5px"
         id="tspan11817">Local food producers</tspan><tspan
         sodipodi:role="line"
         x="454.73389"
         y="398.85538"
         style="font-size:12.5px"
         id="tspan23219">add their products to</tspan><tspan
         sodipodi:role="line"
         x="454.73389"
         y="414.48038"
         style="font-size:12.5px"
         id="tspan23221">Onlylocalfood, along</tspan><tspan
         sodipodi:role="line"
         x="454.73389"
         y="430.10538"
         style="font-size:12.5px"
         id="tspan23237">with when, where, and</tspan><tspan
         sodipodi:role="line"
         x="454.73389"
         y="445.73038"
         style="font-size:12.5px"
         id="tspan23223">how buyers</tspan><tspan
         sodipodi:role="line"
         x="454.73389"
         y="461.35538"
         style="font-size:12.5px"
         id="tspan23239">can get orders. </tspan></text>
    <rect
       style="fill:#212121;fill-opacity:0.73333333;stroke:none;stroke-opacity:0.73333333"
       id="rect11821"
       width="1.8032289"
       height="99.778664"
       x="450.5209"
       y="365.87085" />
    <path
       sodipodi:nodetypes="cc"
       inkscape:connector-curvature="0"
       id="path12694"
       d="M 454.43691,362.25694 C 532.20941,260.20649 669.35453,258.97796 699.94837,283.40549"
       style="fill:none;fill-rule:evenodd;stroke:#212121;stroke-width:0.97243261;stroke-linecap:round;stroke-linejoin:round;stroke-miterlimit:4;stroke-dasharray:0.97243259, 3.88973037;stroke-dashoffset:0;stroke-opacity:0.73333333;marker-end:url(#marker12696)" />
    <path
       style="fill:none;fill-rule:evenodd;stroke:#212121;stroke-width:0.97243261;stroke-linecap:round;stroke-linejoin:round;stroke-miterlimit:4;stroke-dasharray:0.97243259, 3.88973037;stroke-dashoffset:0;stroke-opacity:0.73333333;marker-end:url(#marker13254)"
       d="M 1026.4399,372.01637 C 937.22976,266.55326 783.58062,237.45061 709.12209,283.46773"
       id="path13252"
       inkscape:connector-curvature="0"
       sodipodi:nodetypes="cc" />
    <g
       id="g14328"
       transform="translate(541.32079,21.278569)">
      <text
         xml:space="preserve"
         style="font-style:normal;font-weight:normal;font-size:40px;line-height:125%;font-family:sans-serif;letter-spacing:0px;word-spacing:0px;fill:#000000;fill-opacity:1;stroke:none;stroke-width:1px;stroke-linecap:butt;stroke-linejoin:miter;stroke-opacity:1"
         x="414.74811"
         y="370.18698"
         id="text14308"
         sodipodi:linespacing="125%"><tspan
           sodipodi:role="line"
           x="414.74811"
           y="370.18698"
           style="font-size:12.5px"
           id="tspan23280">People like you come to the site.</tspan><tspan
           sodipodi:role="line"
           x="414.74811"
           y="385.81198"
           style="font-size:12.5px"
           id="tspan23282">We use your location to show</tspan><tspan
           sodipodi:role="line"
           x="414.74811"
           y="401.43698"
           style="font-size:12.5px"
           id="tspan23296">products available in your area, including</tspan><tspan
           sodipodi:role="line"
           x="414.74811"
           y="417.06198"
           style="font-size:12.5px"
           id="tspan23300">when and how to get them.</tspan><tspan
           sodipodi:role="line"
           x="414.74811"
           y="432.68698"
           style="font-size:12.5px"
           id="tspan23302">You can even create your order right</tspan><tspan
           sodipodi:role="line"
           x="414.74811"
           y="448.31198"
           style="font-size:12.5px"
           id="tspan23304">on the site - but don't pay yet!</tspan></text>
      <rect
         style="fill:#212121;fill-opacity:0.73333333;stroke:none;stroke-opacity:0.73333333"
         id="rect14326"
         width="1.8032289"
         height="99.778664"
         x="410.53513"
         y="355.71478" />
    </g>
    <g
       transform="translate(349.59939,243.46898)"
       id="g16902">
      <text
         sodipodi:linespacing="125%"
         id="text16904"
         y="385.27231"
         x="414.74811"
         style="font-style:normal;font-weight:normal;font-size:40px;line-height:125%;font-family:sans-serif;letter-spacing:0px;word-spacing:0px;fill:#000000;fill-opacity:1;stroke:none;stroke-width:1px;stroke-linecap:butt;stroke-linejoin:miter;stroke-opacity:1"
         xml:space="preserve"><tspan
           id="tspan16920"
           style="font-size:12.5px"
           y="385.27231"
           x="414.74811"
           sodipodi:role="line">Your order is sent directly</tspan><tspan
           style="font-size:12.5px"
           y="400.89731"
           x="414.74811"
           sodipodi:role="line"
           id="tspan23334">to the appropriate producer(s).</tspan><tspan
           style="font-size:12.5px"
           y="416.52231"
           x="414.74811"
           sodipodi:role="line"
           id="tspan23336">When they accept it, you are also</tspan><tspan
           style="font-size:12.5px"
           y="432.14731"
           x="414.74811"
           sodipodi:role="line"
           id="tspan23338">notified.</tspan></text>
      <rect
         y="371.66141"
         x="410.53513"
         height="67.767448"
         width="1.8032289"
         id="rect16922"
         style="fill:#212121;fill-opacity:0.73333333;stroke:none;stroke-opacity:0.73333333" />
    </g>
    <path
       sodipodi:nodetypes="cc"
       inkscape:connector-curvature="0"
       id="path16936"
       d="M 716.09266,446.64716 C 666.73671,611.64829 533.28076,593.63196 434.25512,549.56967"
       style="fill:none;fill-opacity:0.73333333;fill-rule:evenodd;stroke:#212121;stroke-width:0.972;stroke-linecap:round;stroke-linejoin:round;stroke-miterlimit:14.5;stroke-dasharray:0.972, 3.888;stroke-dashoffset:0;stroke-opacity:0.73333333;marker-end:url(#marker20736)" />
    <text
       sodipodi:linespacing="125%"
       id="text23050"
       y="826.61633"
       x="632.48889"
       style="font-style:normal;font-weight:normal;font-size:40px;line-height:125%;font-family:sans-serif;letter-spacing:0px;word-spacing:0px;fill:#000000;fill-opacity:1;stroke:none;stroke-width:1px;stroke-linecap:butt;stroke-linejoin:miter;stroke-opacity:1"
       xml:space="preserve"><tspan
         id="tspan23060"
         style="font-size:12.5px"
         y="826.61633"
         x="632.48889"
         sodipodi:role="line">At the chosen date, time, and location,</tspan><tspan
         id="tspan23354"
         style="font-size:12.5px"
         y="842.24133"
         x="632.48889"
         sodipodi:role="line">you and the producer meet, where you</tspan><tspan
         id="tspan23356"
         style="font-size:12.5px"
         y="857.86633"
         x="632.48889"
         sodipodi:role="line">get your order and pay them directly.</tspan><tspan
         id="tspan23358"
         style="font-size:12.5px"
         y="873.49133"
         x="632.48889"
         sodipodi:role="line">It's local food made easy!</tspan></text>
    <rect
       y="811.84735"
       x="628.27588"
       height="68.925552"
       width="1.8032289"
       id="rect23062"
       style="fill:#212121;fill-opacity:0.73333333;stroke:none;stroke-opacity:0.73333333" />
    <g
       id="g32750"
       transform="translate(61.026229,23.362862)">
      <g
         transform="matrix(0.20585921,0,0,0.20585921,543.4693,916.43154)"
         id="g10119">
        <g
           id="g9087"
           transform="translate(51.805634,-28.14179)">
          <path
             d="m 593.79782,-147.46439 c -3.613,-3.612 -7.905,-5.424 -12.847,-5.424 l -292.36,0 c -4.948,0 -9.233,1.812 -12.847,5.424 -3.615,3.617 -5.424,7.902 -5.424,12.85 l 0,54.817998 -45.683,0 c -5.14,0 -10.71,1.237 -16.705,3.711 -5.996,2.478 -10.801,5.518 -14.416,9.135 l -56.53201,56.531 c -2.473,2.4740003 -4.612,5.3270003 -6.424,8.5650003 -1.807,3.23 -3.14,6.14 -3.997,8.705 -0.855,2.572 -1.477,6.0889997 -1.854,10.5659997 -0.378,4.475 -0.62,7.758 -0.715,9.853 -0.091,2.092 -0.091,5.71 0,10.85 0.096,5.142 0.144,8.47 0.144,9.995 l 0,91.360002 c -4.947,0 -9.229,1.807 -12.847,5.428 -3.616,3.609 -5.425,7.896 -5.425,12.845 0,2.851 0.378,5.376 1.14,7.562 0.763,2.19 2.046,3.949 3.858,5.284 1.807,1.335 3.378,2.426 4.709,3.285 1.335,0.855 3.571,1.424 6.711,1.711 3.14,0.287 5.28,0.479 6.423,0.575 1.143,0.089 3.568,0.089 7.279,0 3.715,-0.096 5.855,-0.144 6.427,-0.144 l 18.271,0 c 0,20.17 7.139,37.397 21.41101,51.674 14.277,14.274 31.501,21.413 51.678,21.413 20.175,0 37.401,-7.139 51.675,-21.413 14.277,-14.276 21.411,-31.504 21.411,-51.674 l 109.637,0 c 0,20.17 7.139,37.397 21.412,51.674 14.271,14.274 31.498,21.413 51.675,21.413 20.181,0 37.397,-7.139 51.675,-21.413 14.277,-14.276 21.412,-31.504 21.412,-51.674 0.568,0 2.711,0.048 6.42,0.144 3.713,0.089 6.14,0.089 7.282,0 1.144,-0.096 3.289,-0.288 6.427,-0.575 3.139,-0.287 5.373,-0.855 6.708,-1.711 1.335,-0.856 2.901,-1.95 4.709,-3.285 1.81,-1.335 3.097,-3.094 3.856,-5.284 0.77,-2.187 1.143,-4.712 1.143,-7.562 l 0,-292.359 c 0.004,-4.949 -1.803,-9.229 -5.417,-12.853 z m -334.335,349.18 c -7.229,7.23 -15.797,10.854 -25.694,10.854 -9.898,0 -18.464,-3.62 -25.697,-10.854 -7.233,-7.228 -10.848,-15.797 -10.848,-25.693 0,-9.897 3.619,-18.47 10.848,-25.701 7.232,-7.228 15.798,-10.848 25.697,-10.848 9.897,0 18.464,3.617 25.694,10.848 7.236,7.231 10.853,15.804 10.853,25.701 0,9.896 -3.617,18.465 -10.853,25.693 z m 10.853,-171.877002 -109.63601,0 0,-8.562 c 0,-2.475 0.855,-4.569 2.568,-6.283 l 55.67401,-55.672 c 1.712,-1.714 3.809,-2.568 6.283,-2.568 l 45.111,0 0,73.085 z m 244.96,171.877002 c -7.23,7.23 -15.797,10.854 -25.693,10.854 -9.9,0 -18.47,-3.62 -25.7,-10.854 -7.231,-7.228 -10.849,-15.797 -10.849,-25.693 0,-9.897 3.617,-18.47 10.849,-25.701 7.23,-7.228 15.8,-10.848 25.7,-10.848 9.896,0 18.463,3.617 25.693,10.848 7.231,7.235 10.852,15.804 10.852,25.701 0,9.896 -3.614,18.465 -10.852,25.693 z"
             id="path9089"
             style="fill:#212121;fill-opacity:0.73333333"
             inkscape:connector-curvature="0" />
        </g>
        <g
           id="g9091"
           transform="translate(51.805634,-28.14179)" />
        <g
           id="g9093"
           transform="translate(51.805634,-28.14179)" />
        <g
           id="g9095"
           transform="translate(51.805634,-28.14179)" />
        <g
           id="g9097"
           transform="translate(51.805634,-28.14179)" />
        <g
           id="g9099"
           transform="translate(51.805634,-28.14179)" />
        <g
           id="g9101"
           transform="translate(51.805634,-28.14179)" />
        <g
           id="g9103"
           transform="translate(51.805634,-28.14179)" />
        <g
           id="g9105"
           transform="translate(51.805634,-28.14179)" />
        <g
           id="g9107"
           transform="translate(51.805634,-28.14179)" />
        <g
           id="g9109"
           transform="translate(51.805634,-28.14179)" />
        <g
           id="g9111"
           transform="translate(51.805634,-28.14179)" />
        <g
           id="g9113"
           transform="translate(51.805634,-28.14179)" />
        <g
           id="g9115"
           transform="translate(51.805634,-28.14179)" />
        <g
           id="g9117"
           transform="translate(51.805634,-28.14179)" />
        <g
           id="g9119"
           transform="translate(51.805634,-28.14179)" />
      </g>
      <text
         sodipodi:linespacing="125%"
         id="text32746"
         y="932.77094"
         x="591.61572"
         style="font-style:normal;font-weight:normal;font-size:40px;line-height:125%;font-family:sans-serif;letter-spacing:0px;word-spacing:0px;fill:#000000;fill-opacity:1;stroke:none;stroke-width:1px;stroke-linecap:butt;stroke-linejoin:miter;stroke-opacity:1"
         xml:space="preserve"><tspan
           style="font-style:normal;font-variant:normal;font-weight:bold;font-stretch:normal;font-size:16.25px;font-family:sans-serif;-inkscape-font-specification:'sans-serif Bold';fill:#ffffff"
           y="932.77094"
           x="591.61572"
           id="tspan32748"
           sodipodi:role="line">Delivery</tspan></text>
    </g>
    <g
       id="g32776"
       transform="translate(144.48209,18.800694)">
      <g
         id="g7775"
         transform="matrix(0.2293227,0,0,0.2293227,677.93888,872.31011)"
         style="fill:#212121;fill-opacity:0.73333333;stroke:#212121;stroke-opacity:0.73333333">
        <path
           style="fill:#212121;fill-opacity:0.73333333;stroke:#212121;stroke-opacity:0.73333333"
           d="m -32.945379,431.42787 c -0.266119,-0.69767 -0.367688,-40.19162 -0.22571,-87.76432 l 0.258141,-86.49584 5.961082,-0.74457 c 13.180341,-1.64629 26.00602687,-7.20584 35.2218079,-15.26757 2.8269001,-2.47291 5.6696001,-4.49619 6.3171101,-4.49619 0.64751,0 3.49021,2.02328 6.31711,4.49619 10.82481,9.46928 27.049,15.50381 41.68289,15.50381 14.63389,0 30.858081,-6.03453 41.682888,-15.50381 2.8269,-2.47291 5.6696,-4.49619 6.31711,-4.49619 0.64751,0 3.49021,2.02328 6.31711,4.49619 10.82481,9.46928 27.049,15.50381 41.68289,15.50381 14.63389,0 30.85808,-6.03453 41.68289,-15.50381 2.8269,-2.47291 5.6696,-4.49619 6.31711,-4.49619 0.64751,0 3.49021,2.02328 6.31711,4.49619 10.82481,9.46928 27.049,15.50381 41.68289,15.50381 14.63389,0 30.85808,-6.03453 41.68289,-15.50381 2.8269,-2.47291 5.6696,-4.49619 6.31711,-4.49619 0.64751,0 3.49021,2.02328 6.31711,4.49619 9.21574,8.0617 22.04129,13.6212 35.22181,15.26762 l 5.96108,0.74462 0,87.49578 0,87.49579 -23.5,0 -23.5,0 -0.5,-79.5 -0.5,-79.5 -143.5,0 -143.499998,0 -0.5,79.5 -0.5,79.5 -23.2742888,0.26849 c -18.0775222,0.20854 -23.3823262,-0.0147 -23.7581422,-1 z m 63.996061,-0.003 c -0.27152,-0.70758 -0.37441,-15.00685 -0.22865,-31.77616 l 0.26502,-30.48933 12.75,-0.27988 c 9.65722,-0.21198 12.75,-0.59549 12.75,-1.58102 0,-0.71563 -1.1205,-1.90082 -2.49001,-2.63375 -2.77963,-1.48762 -6.50999,-8.36692 -6.50999,-12.00535 0,-1.3027 0.92705,-4.28358 2.06011,-6.62417 1.93165,-3.99026 5.33953,-6.44703 12.00042,-8.65124 0.85828,-0.28402 2.09533,-2.30142 2.74898,-4.48311 2.41643,-8.06534 10.49397,-12.66556 18.190491,-10.35963 3.1082,0.93124 4.8918,0.93124 8,0 3.1082,-0.93123 4.8918,-0.93123 8,0 3.108197,0.93124 4.891797,0.93124 7.999997,0 7.6979,-2.30634 15.50307,2.12736 18.24947,10.36655 1.12874,3.38623 2.04115,4.32835 5.30682,5.47959 3.00427,1.05909 4.80508,1.13797 7.55973,0.33114 5.06699,-1.48412 6.66103,-1.34547 11.50815,1.00098 4.49426,2.17564 8.37583,8.1723 8.37583,12.93989 0,3.63843 -3.73036,10.51773 -6.50999,12.00535 -1.36951,0.73293 -2.49001,1.93157 -2.49001,2.66363 0,1.06582 4.18906,1.33102 21.02475,1.33102 l 21.02475,0 0.97525,-2.5651 c 0.53639,-1.4108 0.97525,-3.64392 0.97525,-4.96249 0,-4.29002 3.88289,-12.91016 7.48649,-16.62025 l 3.52156,-3.62562 5.74598,2.36299 c 7.95847,3.27288 18.53347,3.27288 26.49194,0 l 5.74598,-2.36299 3.52156,3.62562 c 3.6036,3.71009 7.48649,12.33023 7.48649,16.62025 0,1.31857 0.43449,3.54018 0.96553,4.93692 l 0.96553,2.53953 15.78447,0.27557 15.78447,0.27557 0,31.5 0,31.5 -15.5,0 -15.5,0 -0.5,-15.5 -0.5,-15.5 -95.5,0 -95.499998,0 -0.5,15.5 -0.5,15.5 -15.27135,0.27616 c -11.72865,0.2121 -15.38587,-0.0223 -15.76502,-1.01033 z m 41.53637,-64.26549 c 0,-0.83333 -0.88889,-1.5 -2,-1.5 -1.11111,0 -2,0.66667 -2,1.5 0,0.83333 0.88889,1.5 2,1.5 1.11111,0 2,-0.66667 2,-1.5 z m 16.000001,0 c 0,-0.83333 -0.88889,-1.5 -2,-1.5 -1.11111,0 -2,0.66667 -2,1.5 0,0.83333 0.88889,1.5 2,1.5 1.11111,0 2,-0.66667 2,-1.5 z m 15.999997,0 c 0,-0.83333 -0.88889,-1.5 -2,-1.5 -1.11111,0 -2,0.66667 -2,1.5 0,0.83333 0.88889,1.5 2,1.5 1.11111,0 2,-0.66667 2,-1.5 z m 16,0 c 0,-0.83333 -0.88889,-1.5 -2,-1.5 -1.11111,0 -2,0.66667 -2,1.5 0,0.83333 0.88889,1.5 2,1.5 1.11111,0 2,-0.66667 2,-1.5 z m 16,0 c 0,-0.83333 -0.88889,-1.5 -2,-1.5 -1.11111,0 -2,0.66667 -2,1.5 0,0.83333 0.88889,1.5 2,1.5 1.11111,0 2,-0.66667 2,-1.5 z m 75.45913,-31.86687 c -8.92169,-4.15448 -13.70028,-11.88689 -13.70585,-22.17795 -0.005,-9.49489 5.2313,-17.77767 13.92627,-22.02795 5.16149,-2.52305 15.47941,-2.52305 20.6409,0 14.58154,7.12776 18.57956,26.06244 8.12195,38.46567 -6.559,7.7793 -19.21962,10.28678 -28.98327,5.74023 z m -257.540316,-97.4664 c -16.581204,-4.32843 -29.600439,-17.67844 -33.35988,-34.20744 -0.857413,-3.76976 -1.558932,-11.28839 -1.558932,-16.70808 l 0,-9.85397 37.67283,-47.69862 37.6728309,-47.698621 31.3271691,0 c 17.22994,0 31.32717,0.39244 31.32717,0.87209 0,0.47966 -9.89647,21.742161 -21.99216,47.250011 l -21.99216,46.3779 -0.0655,11 c -0.0785,13.17935 -2.09298,21.83841 -6.9421101,29.83944 -6.48025203,10.69237 -17.0542319,18.37352 -29.0487909,21.10163 -8.661181,1.96994 -14.719477,1.89781 -23.040477,-0.27434 z m 191.999996,0 c -16.5812,-4.32843 -29.60044,-17.67844 -33.35988,-34.20744 -2.92277,-12.85045 -2.15049,-22.42092 5.94107,-73.62434 4.125,-26.10301 7.5,-47.656891 7.5,-47.897491 0,-0.2406 14.4,-0.43746 32,-0.43746 17.6,0 32,0.19686 32,0.43746 0,0.2406 3.375,21.794481 7.5,47.897491 8.2309,52.08516 8.98516,62.03411 5.66673,74.74624 -4.32843,16.5812 -17.67844,29.60044 -34.20744,33.35988 -8.66118,1.96994 -14.71948,1.89781 -23.04048,-0.27434 z m 192,0 c -16.5812,-4.32843 -29.60044,-17.67844 -33.35988,-34.20744 -0.86294,-3.79405 -1.56243,-11.45375 -1.56677,-17.1567 l -0.008,-10.30259 -21.99216,-46.3779 c -12.09553,-25.50785 -21.992,-46.770351 -21.992,-47.250011 0,-0.47965 14.10163,-0.87209 31.33696,-0.87209 l 31.33697,0 37.66303,47.724301 37.66304,47.7243 -0.0577,10.5257 c -0.0694,12.67659 -2.14371,21.46076 -6.93427,29.36514 -6.48025,10.69237 -17.05423,18.37352 -29.04879,21.10163 -8.66118,1.96994 -14.71948,1.89781 -23.04048,-0.27434 z"
           id="path7783"
           inkscape:connector-curvature="0" />
      </g>
      <text
         sodipodi:linespacing="125%"
         id="text32772"
         y="889.77844"
         x="683.33295"
         style="font-style:normal;font-weight:normal;font-size:40px;line-height:125%;font-family:sans-serif;letter-spacing:0px;word-spacing:0px;fill:#000000;fill-opacity:1;stroke:none;stroke-width:1px;stroke-linecap:butt;stroke-linejoin:miter;stroke-opacity:1"
         xml:space="preserve"><tspan
           style="font-style:normal;font-variant:normal;font-weight:bold;font-stretch:normal;font-size:16.25px;font-family:sans-serif;-inkscape-font-specification:'sans-serif Bold';fill:#212121;fill-opacity:0.73333333"
           y="889.77844"
           x="683.33295"
           id="tspan32774"
           sodipodi:role="line">Pickup</tspan></text>
    </g>
    <path
       style="fill:none;fill-rule:evenodd;stroke:#212121;stroke-width:0.97243261;stroke-linecap:round;stroke-linejoin:round;stroke-miterlimit:4;stroke-dasharray:0.97243259, 3.88973037;stroke-dashoffset:0;stroke-opacity:0.73333333;marker-end:url(#marker34428)"
       d="m 383.61775,571.12053 c -1.85953,155.17429 74.32386,233.78859 153.81924,296.18378"
       id="path34426"
       inkscape:connector-curvature="0"
       sodipodi:nodetypes="cc" />
    <path
       sodipodi:nodetypes="cc"
       inkscape:connector-curvature="0"
       id="path35410"
       d="M 927.36979,918.3357 C 1105.6691,839.30353 1237.538,624.7503 1281.0016,505.34886"
       style="fill:none;fill-rule:evenodd;stroke:#212121;stroke-width:0.97243261;stroke-linecap:round;stroke-linejoin:round;stroke-miterlimit:4;stroke-dasharray:0.97243259, 3.88973037;stroke-dashoffset:0;stroke-opacity:0.73333333;marker-end:url(#marker35412)" />
  </g>
</svg>
