<?xml version="1.0" encoding="UTF-8" standalone="no"?>
<!-- Created with Inkscape (http://www.inkscape.org/) -->

<svg
   xmlns:dc="http://purl.org/dc/elements/1.1/"
   xmlns:cc="http://creativecommons.org/ns#"
   xmlns:rdf="http://www.w3.org/1999/02/22-rdf-syntax-ns#"
   xmlns:svg="http://www.w3.org/2000/svg"
   xmlns="http://www.w3.org/2000/svg"
   xmlns:sodipodi="http://sodipodi.sourceforge.net/DTD/sodipodi-0.dtd"
   xmlns:inkscape="http://www.inkscape.org/namespaces/inkscape"
   id="svg4555"
   version="1.1"
   inkscape:version="0.91 r13725"
   xml:space="preserve"
   width="1750"
   height="1062.5"
   viewBox="0 0 1750 1062.5"
   sodipodi:docname="new-color-logo.ai.svg"><metadata
     id="metadata4561"><rdf:RDF><cc:Work
         rdf:about=""><dc:format>image/svg+xml</dc:format><dc:type
           rdf:resource="http://purl.org/dc/dcmitype/StillImage" /><dc:title></dc:title></cc:Work></rdf:RDF></metadata><defs
     id="defs4559"><clipPath
       clipPathUnits="userSpaceOnUse"
       id="clipPath4575"><path
         d="M 0,850 1400,850 1400,0 0,0 0,850 Z"
         id="path4577"
         inkscape:connector-curvature="0" /></clipPath></defs><sodipodi:namedview
     pagecolor="#ffffff"
     bordercolor="#666666"
     borderopacity="1"
     objecttolerance="10"
     gridtolerance="10"
     guidetolerance="10"
     inkscape:pageopacity="0"
     inkscape:pageshadow="2"
     inkscape:window-width="1125"
     inkscape:window-height="726"
     id="namedview4557"
     showgrid="false"
     inkscape:zoom="0.74936681"
     inkscape:cx="871.43165"
     inkscape:cy="700.24191"
     inkscape:window-x="57"
     inkscape:window-y="26"
     inkscape:window-maximized="0"
     inkscape:current-layer="g4573" /><g
     id="g4563"
     inkscape:groupmode="layer"
     inkscape:label="OLF - Logo Design - final"
     transform="matrix(1.25,0,0,-1.25,0,1062.5)"><g
       clip-path="url(#clipPath4575)"
       id="g4573"><g
         transform="translate(647.9381,391.4063)"
         id="g4579"
         style="fill:#7a001f;fill-opacity:1"><path
           inkscape:connector-curvature="0"
           id="path4581"
           style="fill:#7a001f;fill-opacity:1;fill-rule:nonzero;stroke:none"
           d="m 0,0 c -8.62,0 -15.608,6.988 -15.608,15.608 0,8.62 6.988,15.607 15.608,15.607 8.62,0 15.608,-6.987 15.608,-15.607 C 15.608,6.988 8.62,0 0,0 m 19.492,35.1 0,0 c -10.765,10.765 -28.219,10.765 -38.984,0 l 0,0 c -10.765,-10.765 -10.765,-28.219 0,-38.984 L 0,-23.376 19.492,-3.884 c 10.765,10.765 10.765,28.219 0,38.984" /></g><g
         transform="translate(410.6256,407.7612)"
         id="g4583"
         style="fill:#212121;fill-opacity:0.73333335"><path
           inkscape:connector-curvature="0"
           id="path4585"
           style="fill:#212121;fill-opacity:0.73333335;fill-rule:nonzero;stroke:none"
           d="m 0,0 c 0,-8.477 7.157,-15.249 15.744,-15.249 8.588,0 15.635,6.772 15.635,15.249 0,8.477 -7.047,15.194 -15.635,15.194 C 7.157,15.194 0,8.477 0,0 m 35.893,0 c 0,-10.844 -8.919,-19.488 -20.149,-19.488 -11.285,0 -20.203,8.644 -20.203,19.488 0,10.9 8.918,19.378 20.203,19.378 11.23,0 20.149,-8.533 20.149,-19.378" /></g><g
         transform="translate(490.3329,388.4938)"
         id="g4587"
         style="fill:#212121;fill-opacity:0.73333335"><path
           inkscape:connector-curvature="0"
           id="path4589"
           style="fill:#212121;fill-opacity:0.73333335;fill-rule:nonzero;stroke:none"
           d="m 0,0 -23.121,30.938 0,-30.938 -4.404,0 0,38.535 4.569,0 23.121,-30.993 0,30.993 4.349,0 L 4.514,0 0,0 Z" /></g><g
         transform="translate(536.1305,392.6773)"
         id="g4591"
         style="fill:#212121;fill-opacity:0.73333335"><path
           inkscape:connector-curvature="0"
           id="path4593"
           style="fill:#212121;fill-opacity:0.73333335;fill-rule:nonzero;stroke:none"
           d="m 0,0 0,-4.183 -21.304,0 0,38.534 4.404,0 L -16.9,0 0,0 Z" /></g><g
         transform="translate(565.1943,388.4938)"
         id="g4595"
         style="fill:#212121;fill-opacity:0.73333335"><path
           inkscape:connector-curvature="0"
           id="path4597"
           style="fill:#212121;fill-opacity:0.73333335;fill-rule:nonzero;stroke:none"
           d="m 0,0 -4.349,0 0,13.047 -14.918,25.488 4.568,0 12.497,-20.093 12.331,20.093 4.514,0 L 0,13.212 0,0 Z" /></g><g
         transform="translate(615.5062,392.6773)"
         id="g4599"
         style="fill:#7a001f;fill-opacity:1"><path
           inkscape:connector-curvature="0"
           id="path4601"
           style="fill:#7a001f;fill-opacity:1;fill-rule:nonzero;stroke:none"
           d="m 0,0 0,-4.183 -21.304,0 0,38.534 4.404,0 L -16.9,0 0,0 Z" /></g><g
         transform="translate(713.5427,421.5239)"
         id="g4603"
         style="fill:#7a001f;fill-opacity:1"><path
           inkscape:connector-curvature="0"
           id="path4605"
           style="fill:#7a001f;fill-opacity:1;fill-rule:nonzero;stroke:none"
           d="m 0,0 -2.643,-3.358 c -2.972,3.028 -7.156,4.844 -11.394,4.844 -8.698,0 -15.69,-6.716 -15.69,-15.193 0,-8.423 6.992,-15.194 15.69,-15.194 4.238,0 8.367,1.761 11.394,4.624 l 2.698,-3.028 c -3.799,-3.578 -8.973,-5.945 -14.313,-5.945 -11.12,0 -19.928,8.643 -19.928,19.543 0,10.79 8.918,19.322 20.093,19.322 C -8.808,5.615 -3.688,3.468 0,0" /></g><g
         transform="translate(743.4318,422.019)"
         id="g4607"
         style="fill:#7a001f;fill-opacity:1"><path
           inkscape:connector-curvature="0"
           id="path4609"
           style="fill:#7a001f;fill-opacity:1;fill-rule:nonzero;stroke:none"
           d="m 0,0 -8.588,-19.542 17.286,0 L 0,0 Z m -10.46,-23.782 -4.294,-9.743 -4.678,0 17.285,38.535 4.569,0 17.231,-38.535 -4.789,0 -4.294,9.743 -21.03,0 z" /></g><g
         transform="translate(798.6979,392.6773)"
         id="g4611"
         style="fill:#7a001f;fill-opacity:1"><path
           inkscape:connector-curvature="0"
           id="path4613"
           style="fill:#7a001f;fill-opacity:1;fill-rule:nonzero;stroke:none"
           d="m 0,0 0,-4.183 -21.304,0 0,38.534 4.404,0 L -16.9,0 0,0 Z" /></g><g
         transform="translate(818.5126,422.7899)"
         id="g4615"
         style="fill:#212121;fill-opacity:0.73333335"><path
           inkscape:connector-curvature="0"
           id="path4617"
           style="fill:#212121;fill-opacity:0.73333335;fill-rule:nonzero;stroke:none"
           d="m 0,0 0,-13.542 18.001,0 0,-4.239 -18.001,0 0,-16.515 -4.404,0 0,38.535 24.497,0 L 20.093,0 0,0 Z" /></g><g
         transform="translate(854.1813,407.7612)"
         id="g4619"
         style="fill:#212121;fill-opacity:0.73333335"><path
           inkscape:connector-curvature="0"
           id="path4621"
           style="fill:#212121;fill-opacity:0.73333335;fill-rule:nonzero;stroke:none"
           d="m 0,0 c 0,-8.477 7.156,-15.249 15.744,-15.249 8.588,0 15.635,6.772 15.635,15.249 0,8.477 -7.047,15.194 -15.635,15.194 C 7.156,15.194 0,8.477 0,0 m 35.893,0 c 0,-10.844 -8.918,-19.488 -20.149,-19.488 -11.285,0 -20.203,8.644 -20.203,19.488 0,10.9 8.918,19.378 20.203,19.378 11.231,0 20.149,-8.533 20.149,-19.378" /></g><g
         transform="translate(906.2536,407.7612)"
         id="g4623"
         style="fill:#212121;fill-opacity:0.73333335"><path
           inkscape:connector-curvature="0"
           id="path4625"
           style="fill:#212121;fill-opacity:0.73333335;fill-rule:nonzero;stroke:none"
           d="m 0,0 c 0,-8.477 7.156,-15.249 15.744,-15.249 8.588,0 15.635,6.772 15.635,15.249 0,8.477 -7.047,15.194 -15.635,15.194 C 7.156,15.194 0,8.477 0,0 m 35.893,0 c 0,-10.844 -8.918,-19.488 -20.149,-19.488 -11.285,0 -20.203,8.644 -20.203,19.488 0,10.9 8.918,19.378 20.203,19.378 11.231,0 20.149,-8.533 20.149,-19.378" /></g><g
         transform="translate(962.8403,392.6773)"
         id="g4627"
         style="fill:#212121;fill-opacity:0.73333335"><path
           inkscape:connector-curvature="0"
           id="path4629"
           style="fill:#212121;fill-opacity:0.73333335;fill-rule:nonzero;stroke:none"
           d="m 0,0 11.23,0 c 8.588,0 15.304,6.441 15.304,15.029 0,8.643 -6.826,15.084 -15.469,15.084 L 0,30.113 0,0 Z m 11.175,34.351 c 11.23,0 19.818,-8.312 19.818,-19.267 0,-10.955 -8.643,-19.267 -19.984,-19.267 l -15.413,0 0,38.534 15.579,0 z" /></g><path
         inkscape:connector-curvature="0"
         id="path4631"
         style="fill:#212121;fill-opacity:0.73333335;fill-rule:nonzero;stroke:none"
         d="m 621.5,432.59 -215.333,0 0,1.99 215.333,0 0,-1.99 z" /><path
         inkscape:connector-curvature="0"
         id="path4633"
         style="fill:#212121;fill-opacity:0.73333335;fill-rule:nonzero;stroke:none"
         d="m 993.833,432.59 -318.013,0 0,1.99 318.013,0 0,-1.99 z" /><g
         transform="translate(647.9381,478.7701)"
         id="g4635"
         style="fill:#3c910f;fill-opacity:1"><path
           inkscape:connector-curvature="0"
           id="path4637"
           style="fill:#3c910f;fill-opacity:1;fill-rule:nonzero;stroke:none"
           d="M 0,0 C 0,0 -6.924,-0.163 -6.893,-12.79 -6.89,-19.075 -5.166,-28.447 0,-42.425 15.51,-0.46 0,0 0,0" /></g><g
         transform="translate(674.2191,472.4415)"
         id="g4639"
         style="fill:#3c910f;fill-opacity:1"><path
           inkscape:connector-curvature="0"
           id="path4641"
           style="fill:#3c910f;fill-opacity:1;fill-rule:nonzero;stroke:none"
           d="m 0,0 c 0,0 -5.961,3.528 -12.62,-7.2 -3.325,-5.333 -6.825,-14.197 -9.843,-28.79 C 12.914,-8.602 0,0 0,0" /></g><g
         transform="translate(621.6572,472.3353)"
         id="g4643"
         style="fill:#3c910f;fill-opacity:1"><path
           inkscape:connector-curvature="0"
           id="path4645"
           style="fill:#3c910f;fill-opacity:1;fill-rule:nonzero;stroke:none"
           d="m 0,0 c 0,0 5.961,3.528 12.619,-7.2 3.326,-5.333 6.826,-14.197 9.844,-28.79 C -12.914,-8.602 0,0 0,0" /></g></g></g></svg>